G04 #@! TF.FileFunction,Copper,L2,Bot,Signal*
%FSLAX46Y46*%
G04 Gerber Fmt 4.6, Leading zero omitted, Abs format (unit mm)*
G04 Created by KiCad (PCBNEW 4.1.0-alpha+201606051201+6884~45~ubuntu16.04.1-product) date Tue Jun  7 15:38:57 2016*
%MOMM*%
%LPD*%
G01*
G04 APERTURE LIST*
%ADD10C,0.100000*%
%ADD11R,1.778000X2.794000*%
%ADD12R,0.800000X0.750000*%
%ADD13R,1.300480X1.699260*%
%ADD14R,1.300000X0.300000*%
%ADD15R,3.000000X2.000000*%
%ADD16R,1.000000X0.400000*%
%ADD17O,1.200000X2.000000*%
%ADD18C,0.600000*%
%ADD19C,0.250000*%
%ADD20C,0.254000*%
G04 APERTURE END LIST*
D10*
D11*
X103378000Y-114000000D03*
X99822000Y-114000000D03*
X112800000Y-104200000D03*
X109244000Y-104200000D03*
X112800000Y-100700000D03*
X109244000Y-100700000D03*
D12*
X112700000Y-113400000D03*
X111200000Y-113400000D03*
X107400000Y-107900000D03*
X108900000Y-107900000D03*
X112600000Y-115200000D03*
X114100000Y-115200000D03*
D11*
X103122000Y-98600000D03*
X106678000Y-98600000D03*
D12*
X112600000Y-116800000D03*
X114100000Y-116800000D03*
D13*
X112700000Y-97900000D03*
X109199880Y-97900000D03*
D14*
X124000000Y-106500000D03*
X124000000Y-106000000D03*
X124000000Y-105500000D03*
X124000000Y-105000000D03*
X124000000Y-104500000D03*
X124000000Y-104000000D03*
X124000000Y-103500000D03*
X124000000Y-103000000D03*
X124000000Y-102500000D03*
X124000000Y-102000000D03*
X124000000Y-101500000D03*
X124000000Y-101000000D03*
X124000000Y-100500000D03*
X124000000Y-100000000D03*
X124000000Y-99500000D03*
X124000000Y-99000000D03*
D15*
X121000000Y-108000000D03*
X121000000Y-97500000D03*
D14*
X91900000Y-99000000D03*
X91900000Y-99500000D03*
X91900000Y-100000000D03*
X91900000Y-100500000D03*
X91900000Y-101000000D03*
X91900000Y-101500000D03*
X91900000Y-102000000D03*
X91900000Y-102500000D03*
X91900000Y-103000000D03*
X91900000Y-103500000D03*
X91900000Y-104000000D03*
X91900000Y-104500000D03*
X91900000Y-105000000D03*
X91900000Y-105500000D03*
X91900000Y-106000000D03*
X91900000Y-106500000D03*
D15*
X94900000Y-97500000D03*
X94900000Y-108000000D03*
D12*
X111200000Y-107900000D03*
X112700000Y-107900000D03*
X115700000Y-113400000D03*
X114200000Y-113400000D03*
X114300000Y-107900000D03*
X115800000Y-107900000D03*
X105500000Y-113400000D03*
X107000000Y-113400000D03*
D16*
X99900000Y-107025000D03*
X99900000Y-106375000D03*
X99900000Y-105725000D03*
X99900000Y-105075000D03*
X99900000Y-104425000D03*
X99900000Y-103775000D03*
X99900000Y-103125000D03*
X99900000Y-102475000D03*
X99900000Y-101825000D03*
X99900000Y-101175000D03*
X105700000Y-101175000D03*
X105700000Y-101825000D03*
X105700000Y-102475000D03*
X105700000Y-103125000D03*
X105700000Y-103775000D03*
X105700000Y-104425000D03*
X105700000Y-105075000D03*
X105700000Y-105725000D03*
X105700000Y-106375000D03*
X105700000Y-107025000D03*
D17*
X99999000Y-95450000D03*
X99999000Y-110550000D03*
X101777000Y-95450000D03*
X101777000Y-110550000D03*
X103555000Y-95450000D03*
X103555000Y-110550000D03*
X105333000Y-95450000D03*
X105333000Y-110550000D03*
X107111000Y-95450000D03*
X107111000Y-110550000D03*
X108889000Y-95450000D03*
X108889000Y-110550000D03*
X110667000Y-95450000D03*
X110667000Y-110550000D03*
X112445000Y-95450000D03*
X112445000Y-110550000D03*
X114223000Y-95450000D03*
X114223000Y-110550000D03*
X116001000Y-95450000D03*
X116001000Y-110550000D03*
D18*
X116500000Y-97300000D03*
X96689853Y-100989853D03*
X118100000Y-105050000D03*
X118100000Y-107300000D03*
X91900000Y-97800000D03*
X120300000Y-105050000D03*
X104400000Y-108400000D03*
X111000000Y-102500000D03*
X114300000Y-106400000D03*
X118200000Y-108200000D03*
X98100000Y-108000000D03*
X94200000Y-100200000D03*
X104900000Y-97975001D03*
X93500000Y-99500000D03*
X107400000Y-100700000D03*
X122000000Y-105700000D03*
X121100000Y-105700000D03*
X125300000Y-107000000D03*
X120594669Y-101315325D03*
X119697730Y-101302270D03*
X118800000Y-101300000D03*
X121700000Y-102500000D03*
X125500000Y-101900000D03*
X121700000Y-101350021D03*
X125500000Y-100700000D03*
X119399994Y-99200000D03*
X120199997Y-99200000D03*
X121000000Y-99200000D03*
X121800000Y-99200000D03*
X120300000Y-113400000D03*
X104400000Y-101200000D03*
X102600000Y-101825000D03*
X103700000Y-103100000D03*
X104400000Y-103800000D03*
D19*
X116500000Y-99300000D02*
X116500000Y-99600000D01*
X116500000Y-99600000D02*
X116500000Y-104400000D01*
X116500000Y-97300000D02*
X116500000Y-97724264D01*
X116500000Y-97724264D02*
X116500000Y-99600000D01*
X96689853Y-100989853D02*
X91910147Y-100989853D01*
X91910147Y-100989853D02*
X91900000Y-101000000D01*
X116500000Y-104400000D02*
X117150000Y-105050000D01*
X117150000Y-105050000D02*
X118100000Y-105050000D01*
X118100000Y-107300000D02*
X118100000Y-105050000D01*
X120700000Y-106500000D02*
X120300000Y-106100000D01*
X120300000Y-106100000D02*
X120300000Y-105050000D01*
X124000000Y-106500000D02*
X120700000Y-106500000D01*
X112700000Y-107900000D02*
X112700000Y-110295000D01*
X112700000Y-110295000D02*
X112445000Y-110550000D01*
X108889000Y-95450000D02*
X110667000Y-95450000D01*
X91900000Y-97800000D02*
X91900000Y-99000000D01*
X124000000Y-106400000D02*
X124000000Y-106000000D01*
X124000000Y-106500000D02*
X124000000Y-106000000D01*
X101400000Y-105325000D02*
X101400000Y-105400000D01*
X101400000Y-105400000D02*
X104400000Y-108400000D01*
X90700000Y-99800000D02*
X90700000Y-101200000D01*
X90700000Y-101200000D02*
X91000000Y-101500000D01*
X91000000Y-101500000D02*
X91900000Y-101500000D01*
X91900000Y-99500000D02*
X91000000Y-99500000D01*
X91000000Y-99500000D02*
X90700000Y-99800000D01*
X91900000Y-99000000D02*
X91900000Y-99500000D01*
X101400000Y-101969000D02*
X101400000Y-102500000D01*
X101400000Y-102500000D02*
X101400000Y-102900000D01*
X101825000Y-102475000D02*
X101425000Y-102475000D01*
X101425000Y-102475000D02*
X101400000Y-102500000D01*
X103122000Y-98600000D02*
X103122000Y-100247000D01*
X103122000Y-100247000D02*
X101400000Y-101969000D01*
X105700000Y-102475000D02*
X101825000Y-102475000D01*
X101400000Y-102900000D02*
X101400000Y-105325000D01*
X101400000Y-105325000D02*
X101000000Y-105725000D01*
X101000000Y-105725000D02*
X100650000Y-105725000D01*
X100650000Y-105725000D02*
X99900000Y-105725000D01*
X111000000Y-102500000D02*
X111000000Y-100700000D01*
X111661000Y-100700000D02*
X111000000Y-100700000D01*
X111000000Y-100700000D02*
X111000000Y-97300000D01*
X111000000Y-97300000D02*
X110667000Y-96967000D01*
X110667000Y-96967000D02*
X110667000Y-95450000D01*
X111661000Y-100700000D02*
X112800000Y-100700000D01*
X106425000Y-114600000D02*
X105117000Y-114600000D01*
X105117000Y-114600000D02*
X104517000Y-114000000D01*
X104517000Y-114000000D02*
X103378000Y-114000000D01*
X107000000Y-113400000D02*
X107000000Y-114025000D01*
X107000000Y-114025000D02*
X106425000Y-114600000D01*
X107000000Y-113400000D02*
X111200000Y-113400000D01*
X111200000Y-113400000D02*
X111225000Y-113400000D01*
X112445000Y-112180000D02*
X112445000Y-111800000D01*
X111225000Y-113400000D02*
X112445000Y-112180000D01*
X112445000Y-111800000D02*
X112445000Y-110550000D01*
X112600000Y-115200000D02*
X112600000Y-114800000D01*
X112600000Y-114800000D02*
X111200000Y-113400000D01*
X112600000Y-115200000D02*
X112600000Y-116800000D01*
X107111000Y-110550000D02*
X107111000Y-113289000D01*
X107111000Y-113289000D02*
X107000000Y-113400000D01*
X114300000Y-107900000D02*
X112700000Y-107900000D01*
X114300000Y-107900000D02*
X114300000Y-106400000D01*
X118200000Y-108200000D02*
X116100000Y-108200000D01*
X116100000Y-108200000D02*
X115800000Y-107900000D01*
X91900000Y-100500000D02*
X93900000Y-100500000D01*
X93900000Y-100500000D02*
X94200000Y-100200000D01*
X107700000Y-93400000D02*
X107111000Y-93989000D01*
X107111000Y-93989000D02*
X107111000Y-95450000D01*
X113800000Y-93400000D02*
X107700000Y-93400000D01*
X114223000Y-93823000D02*
X113800000Y-93400000D01*
X114223000Y-95450000D02*
X114223000Y-93823000D01*
X107111000Y-95450000D02*
X107111000Y-95850000D01*
X107111000Y-95850000D02*
X109161000Y-97900000D01*
X109161000Y-97900000D02*
X109199880Y-97900000D01*
X113700000Y-118300000D02*
X114100000Y-117900000D01*
X114100000Y-117900000D02*
X114100000Y-116800000D01*
X103614000Y-118300000D02*
X113700000Y-118300000D01*
X99822000Y-114000000D02*
X99822000Y-114508000D01*
X99822000Y-114508000D02*
X103614000Y-118300000D01*
X98100000Y-110631000D02*
X98100000Y-113417000D01*
X98100000Y-113417000D02*
X98683000Y-114000000D01*
X98683000Y-114000000D02*
X99822000Y-114000000D01*
X98100000Y-108075000D02*
X98100000Y-110631000D01*
X99900000Y-107025000D02*
X99150000Y-107025000D01*
X99150000Y-107025000D02*
X98100000Y-108075000D01*
X99900000Y-107025000D02*
X99900000Y-106375000D01*
X112700000Y-113400000D02*
X114200000Y-113400000D01*
X114200000Y-113400000D02*
X114200000Y-110573000D01*
X114200000Y-110573000D02*
X114223000Y-110550000D01*
X114100000Y-115200000D02*
X114100000Y-113500000D01*
X114100000Y-113500000D02*
X114200000Y-113400000D01*
X114100000Y-116800000D02*
X114100000Y-115200000D01*
X112700000Y-97900000D02*
X113900000Y-97900000D01*
X113900000Y-97900000D02*
X114500000Y-98500000D01*
X114500000Y-98500000D02*
X114500000Y-103639000D01*
X114500000Y-103639000D02*
X113939000Y-104200000D01*
X113939000Y-104200000D02*
X112800000Y-104200000D01*
X111200000Y-107900000D02*
X111200000Y-104661000D01*
X111200000Y-104661000D02*
X111661000Y-104200000D01*
X111661000Y-104200000D02*
X112800000Y-104200000D01*
X111200000Y-107900000D02*
X108900000Y-107900000D01*
X105700000Y-105075000D02*
X106125000Y-105075000D01*
X106125000Y-105075000D02*
X106249999Y-104950001D01*
X106249999Y-104950001D02*
X107354999Y-104950001D01*
X107354999Y-104950001D02*
X108105000Y-104200000D01*
X108105000Y-104200000D02*
X109244000Y-104200000D01*
X91900000Y-100000000D02*
X93000000Y-100000000D01*
X93000000Y-100000000D02*
X93500000Y-99500000D01*
X104900000Y-97975001D02*
X106053001Y-97975001D01*
X106053001Y-97975001D02*
X106678000Y-98600000D01*
X108105000Y-100700000D02*
X107400000Y-100700000D01*
X106678000Y-100700000D02*
X107400000Y-100700000D01*
X106678000Y-104197000D02*
X106678000Y-100700000D01*
X106678000Y-100700000D02*
X106678000Y-100247000D01*
X109244000Y-100700000D02*
X108105000Y-100700000D01*
X105700000Y-104425000D02*
X106450000Y-104425000D01*
X106678000Y-100247000D02*
X106678000Y-98600000D01*
X106450000Y-104425000D02*
X106678000Y-104197000D01*
X105333000Y-110550000D02*
X105333000Y-113233000D01*
X105333000Y-113233000D02*
X105500000Y-113400000D01*
X107400000Y-107900000D02*
X107375000Y-107900000D01*
X107375000Y-107900000D02*
X105333000Y-109942000D01*
X105333000Y-109942000D02*
X105333000Y-110550000D01*
X122000000Y-105700000D02*
X122200000Y-105500000D01*
X122200000Y-105500000D02*
X124000000Y-105500000D01*
X124000000Y-105000000D02*
X122000000Y-105000000D01*
X121100000Y-105700000D02*
X121800000Y-105000000D01*
X121800000Y-105000000D02*
X122000000Y-105000000D01*
X122400000Y-105000000D02*
X124000000Y-105000000D01*
X125300000Y-107000000D02*
X125300000Y-104900000D01*
X125300000Y-104900000D02*
X124900000Y-104500000D01*
X124900000Y-104500000D02*
X124000000Y-104500000D01*
X124000000Y-103000000D02*
X122125002Y-103000000D01*
X122125002Y-103000000D02*
X122000001Y-103125001D01*
X122000001Y-103125001D02*
X121399999Y-103125001D01*
X121399999Y-103125001D02*
X120594669Y-102319671D01*
X120594669Y-102319671D02*
X120594669Y-101315325D01*
X119697730Y-101302270D02*
X119697730Y-102059142D01*
X119697730Y-102059142D02*
X121213599Y-103575011D01*
X121213599Y-103575011D02*
X122186402Y-103575010D01*
X122186402Y-103575010D02*
X122261412Y-103500000D01*
X122261412Y-103500000D02*
X123100000Y-103500000D01*
X123100000Y-103500000D02*
X124000000Y-103500000D01*
X124000000Y-104000000D02*
X122397822Y-104000000D01*
X122397822Y-104000000D02*
X122372801Y-104025019D01*
X122372801Y-104025019D02*
X121027198Y-104025020D01*
X121027198Y-104025020D02*
X118800000Y-101797822D01*
X118800000Y-101797822D02*
X118800000Y-101300000D01*
X121700000Y-102500000D02*
X124000000Y-102500000D01*
X125500000Y-101900000D02*
X125400000Y-102000000D01*
X125400000Y-102000000D02*
X124000000Y-102000000D01*
X121700000Y-101350021D02*
X121849979Y-101500000D01*
X121849979Y-101500000D02*
X124000000Y-101500000D01*
X125500000Y-100700000D02*
X125200000Y-101000000D01*
X125200000Y-101000000D02*
X124000000Y-101000000D01*
X122774981Y-100725019D02*
X123000000Y-100500000D01*
X123000000Y-100500000D02*
X124000000Y-100500000D01*
X119399994Y-99299994D02*
X120825019Y-100725019D01*
X120825019Y-100725019D02*
X122774981Y-100725019D01*
X119399994Y-99200000D02*
X119399994Y-99299994D01*
X120199997Y-99200000D02*
X120199997Y-99324999D01*
X121150008Y-100275010D02*
X122524990Y-100275010D01*
X120199997Y-99324999D02*
X121150008Y-100275010D01*
X122775001Y-100024999D02*
X123975001Y-100024999D01*
X122524990Y-100275010D02*
X122775001Y-100024999D01*
X123975001Y-100024999D02*
X124000000Y-100000000D01*
X122074999Y-99825001D02*
X122400000Y-99500000D01*
X122400000Y-99500000D02*
X124000000Y-99500000D01*
X121000000Y-99200000D02*
X121000000Y-99325002D01*
X121000000Y-99325002D02*
X121499999Y-99825001D01*
X121499999Y-99825001D02*
X122074999Y-99825001D01*
X121800000Y-99200000D02*
X122000000Y-99000000D01*
X122000000Y-99000000D02*
X124000000Y-99000000D01*
X104700000Y-93400000D02*
X105333000Y-94033000D01*
X105333000Y-94033000D02*
X105333000Y-95450000D01*
X99200000Y-93400000D02*
X104700000Y-93400000D01*
X98600000Y-94000000D02*
X99200000Y-93400000D01*
X98600000Y-99963590D02*
X98600000Y-94000000D01*
X96563590Y-102000000D02*
X98600000Y-99963590D01*
X91900000Y-102000000D02*
X96563590Y-102000000D01*
X91900000Y-102500000D02*
X96700000Y-102500000D01*
X96700000Y-102500000D02*
X99999000Y-99201000D01*
X99999000Y-99201000D02*
X99999000Y-95450000D01*
X91900000Y-103000000D02*
X96885128Y-103000000D01*
X96885128Y-103000000D02*
X99160137Y-100724991D01*
X99160137Y-100724991D02*
X99175009Y-100724991D01*
X99175009Y-100724991D02*
X101777000Y-98123000D01*
X101777000Y-98123000D02*
X101777000Y-95450000D01*
X91900000Y-103500000D02*
X97021538Y-103500000D01*
X97021538Y-103500000D02*
X99346538Y-101175000D01*
X99346538Y-101175000D02*
X99900000Y-101175000D01*
X91900000Y-104000000D02*
X97157948Y-104000000D01*
X97157948Y-104000000D02*
X99332948Y-101825000D01*
X99332948Y-101825000D02*
X99900000Y-101825000D01*
X91900000Y-104500000D02*
X97294358Y-104500000D01*
X97294358Y-104500000D02*
X99319358Y-102475000D01*
X99319358Y-102475000D02*
X99900000Y-102475000D01*
X91900000Y-105000000D02*
X97430768Y-105000000D01*
X97430768Y-105000000D02*
X99305768Y-103125000D01*
X99305768Y-103125000D02*
X99900000Y-103125000D01*
X91900000Y-105500000D02*
X97567178Y-105500000D01*
X97567178Y-105500000D02*
X99292178Y-103775000D01*
X99292178Y-103775000D02*
X99900000Y-103775000D01*
X91900000Y-106000000D02*
X97703588Y-106000000D01*
X97703588Y-106000000D02*
X99278588Y-104425000D01*
X99278588Y-104425000D02*
X99900000Y-104425000D01*
X91900000Y-106500000D02*
X97839998Y-106500000D01*
X97839998Y-106500000D02*
X99264998Y-105075000D01*
X99264998Y-105075000D02*
X99900000Y-105075000D01*
X115700000Y-113400000D02*
X120300000Y-113400000D01*
X105700000Y-101175000D02*
X104425000Y-101175000D01*
X104425000Y-101175000D02*
X104400000Y-101200000D01*
X102600000Y-101825000D02*
X105700000Y-101825000D01*
X105700000Y-103125000D02*
X103725000Y-103125000D01*
X103725000Y-103125000D02*
X103700000Y-103100000D01*
X105700000Y-103775000D02*
X104425000Y-103775000D01*
X104425000Y-103775000D02*
X104400000Y-103800000D01*
D20*
G36*
X124127000Y-107126250D02*
X124285750Y-107285000D01*
X124407179Y-107285000D01*
X124464372Y-107429454D01*
X124563701Y-107583583D01*
X124691076Y-107715484D01*
X124841644Y-107820131D01*
X125009671Y-107893540D01*
X125029691Y-107897942D01*
X124251974Y-110235845D01*
X122537008Y-113254731D01*
X120268332Y-115883017D01*
X117532359Y-118020594D01*
X114433301Y-119586040D01*
X111089201Y-120519730D01*
X107627434Y-120786098D01*
X104179859Y-120375000D01*
X100877791Y-119302093D01*
X97847006Y-117608244D01*
X95202945Y-115357972D01*
X93046320Y-112636989D01*
X91459276Y-109548936D01*
X90735151Y-107023610D01*
X90798815Y-107101185D01*
X90895506Y-107180537D01*
X91005820Y-107239502D01*
X91125518Y-107275812D01*
X91250000Y-107288072D01*
X92550000Y-107288072D01*
X92674482Y-107275812D01*
X92726607Y-107260000D01*
X92761928Y-107260000D01*
X92761928Y-109000000D01*
X92774188Y-109124482D01*
X92810498Y-109244180D01*
X92869463Y-109354494D01*
X92948815Y-109451185D01*
X93045506Y-109530537D01*
X93155820Y-109589502D01*
X93275518Y-109625812D01*
X93400000Y-109638072D01*
X96400000Y-109638072D01*
X96524482Y-109625812D01*
X96644180Y-109589502D01*
X96754494Y-109530537D01*
X96851185Y-109451185D01*
X96930537Y-109354494D01*
X96989502Y-109244180D01*
X97025812Y-109124482D01*
X97038072Y-109000000D01*
X97038072Y-107260000D01*
X97523200Y-107260000D01*
X97511291Y-107267793D01*
X97380283Y-107396086D01*
X97276689Y-107547381D01*
X97204454Y-107715916D01*
X97166331Y-107895272D01*
X97163771Y-108078617D01*
X97196872Y-108258968D01*
X97264372Y-108429454D01*
X97340000Y-108546806D01*
X97340000Y-113417000D01*
X97346851Y-113486877D01*
X97352969Y-113556803D01*
X97354084Y-113560641D01*
X97354474Y-113564618D01*
X97374764Y-113631821D01*
X97394351Y-113699240D01*
X97396190Y-113702788D01*
X97397345Y-113706613D01*
X97430299Y-113768591D01*
X97462610Y-113830925D01*
X97465103Y-113834048D01*
X97466980Y-113837578D01*
X97511355Y-113891987D01*
X97555148Y-113946846D01*
X97560631Y-113952406D01*
X97560726Y-113952522D01*
X97560834Y-113952611D01*
X97562599Y-113954401D01*
X98145599Y-114537402D01*
X98199890Y-114581997D01*
X98253625Y-114627086D01*
X98257125Y-114629010D01*
X98260216Y-114631549D01*
X98294928Y-114650161D01*
X98294928Y-115397000D01*
X98307188Y-115521482D01*
X98343498Y-115641180D01*
X98402463Y-115751494D01*
X98481815Y-115848185D01*
X98578506Y-115927537D01*
X98688820Y-115986502D01*
X98808518Y-116022812D01*
X98933000Y-116035072D01*
X100274270Y-116035072D01*
X103076599Y-118837401D01*
X103130855Y-118881968D01*
X103184625Y-118927086D01*
X103188126Y-118929011D01*
X103191215Y-118931548D01*
X103253102Y-118964732D01*
X103314604Y-118998543D01*
X103318412Y-118999751D01*
X103321935Y-119001640D01*
X103389077Y-119022167D01*
X103455987Y-119043392D01*
X103459959Y-119043838D01*
X103463781Y-119045006D01*
X103533649Y-119052103D01*
X103603389Y-119059926D01*
X103611194Y-119059980D01*
X103611347Y-119059996D01*
X103611490Y-119059982D01*
X103614000Y-119060000D01*
X113700000Y-119060000D01*
X113769877Y-119053149D01*
X113839803Y-119047031D01*
X113843641Y-119045916D01*
X113847618Y-119045526D01*
X113914821Y-119025236D01*
X113982240Y-119005649D01*
X113985788Y-119003810D01*
X113989613Y-119002655D01*
X114051591Y-118969701D01*
X114113925Y-118937390D01*
X114117048Y-118934897D01*
X114120578Y-118933020D01*
X114174987Y-118888645D01*
X114229846Y-118844852D01*
X114235406Y-118839369D01*
X114235522Y-118839274D01*
X114235611Y-118839166D01*
X114237401Y-118837401D01*
X114637401Y-118437401D01*
X114681968Y-118383145D01*
X114727086Y-118329375D01*
X114729011Y-118325874D01*
X114731548Y-118322785D01*
X114764713Y-118260933D01*
X114798543Y-118199396D01*
X114799752Y-118195584D01*
X114801639Y-118192065D01*
X114822152Y-118124969D01*
X114843392Y-118058013D01*
X114843838Y-118054041D01*
X114845006Y-118050219D01*
X114852098Y-117980395D01*
X114859926Y-117910611D01*
X114859981Y-117902796D01*
X114859995Y-117902653D01*
X114859982Y-117902520D01*
X114860000Y-117900000D01*
X114860000Y-117701018D01*
X114951185Y-117626185D01*
X115030537Y-117529494D01*
X115089502Y-117419180D01*
X115125812Y-117299482D01*
X115138072Y-117175000D01*
X115138072Y-116425000D01*
X115125812Y-116300518D01*
X115089502Y-116180820D01*
X115030537Y-116070506D01*
X114972674Y-116000000D01*
X115030537Y-115929494D01*
X115089502Y-115819180D01*
X115125812Y-115699482D01*
X115138072Y-115575000D01*
X115138072Y-114825000D01*
X115125812Y-114700518D01*
X115089502Y-114580820D01*
X115030537Y-114470506D01*
X114951185Y-114373815D01*
X114902108Y-114333538D01*
X114950000Y-114307939D01*
X115055820Y-114364502D01*
X115175518Y-114400812D01*
X115300000Y-114413072D01*
X116100000Y-114413072D01*
X116224482Y-114400812D01*
X116344180Y-114364502D01*
X116454494Y-114305537D01*
X116551185Y-114226185D01*
X116605501Y-114160000D01*
X119755126Y-114160000D01*
X119841644Y-114220131D01*
X120009671Y-114293540D01*
X120188757Y-114332915D01*
X120372079Y-114336755D01*
X120552657Y-114304914D01*
X120723610Y-114238606D01*
X120878429Y-114140355D01*
X121011215Y-114013904D01*
X121116911Y-113864070D01*
X121191492Y-113696560D01*
X121232116Y-113517754D01*
X121235040Y-113308319D01*
X121199425Y-113128448D01*
X121129550Y-112958920D01*
X121028079Y-112806193D01*
X120898875Y-112676084D01*
X120746860Y-112573549D01*
X120577825Y-112502493D01*
X120398207Y-112465623D01*
X120214849Y-112464343D01*
X120034733Y-112498701D01*
X119864722Y-112567390D01*
X119753763Y-112640000D01*
X116605501Y-112640000D01*
X116551185Y-112573815D01*
X116454494Y-112494463D01*
X116344180Y-112435498D01*
X116224482Y-112399188D01*
X116100000Y-112386928D01*
X115300000Y-112386928D01*
X115175518Y-112399188D01*
X115055820Y-112435498D01*
X114960000Y-112486716D01*
X114960000Y-111942463D01*
X115087084Y-111840285D01*
X115111175Y-111811575D01*
X115124680Y-111828134D01*
X115310397Y-111981772D01*
X115522418Y-112096412D01*
X115752669Y-112167686D01*
X115992378Y-112192881D01*
X116232416Y-112171036D01*
X116463639Y-112102983D01*
X116677241Y-111991315D01*
X116865084Y-111840285D01*
X117020015Y-111655645D01*
X117136132Y-111444429D01*
X117209012Y-111214682D01*
X117235880Y-110975154D01*
X117236000Y-110957911D01*
X117236000Y-110142089D01*
X117212480Y-109902210D01*
X117142814Y-109671467D01*
X117029658Y-109458650D01*
X116877320Y-109271866D01*
X116691603Y-109118228D01*
X116479582Y-109003588D01*
X116338771Y-108960000D01*
X117655126Y-108960000D01*
X117741644Y-109020131D01*
X117909671Y-109093540D01*
X118088757Y-109132915D01*
X118272079Y-109136755D01*
X118452657Y-109104914D01*
X118623610Y-109038606D01*
X118778429Y-108940355D01*
X118861928Y-108860840D01*
X118861928Y-109000000D01*
X118874188Y-109124482D01*
X118910498Y-109244180D01*
X118969463Y-109354494D01*
X119048815Y-109451185D01*
X119145506Y-109530537D01*
X119255820Y-109589502D01*
X119375518Y-109625812D01*
X119500000Y-109638072D01*
X122500000Y-109638072D01*
X122624482Y-109625812D01*
X122744180Y-109589502D01*
X122854494Y-109530537D01*
X122951185Y-109451185D01*
X123030537Y-109354494D01*
X123089502Y-109244180D01*
X123125812Y-109124482D01*
X123138072Y-109000000D01*
X123138072Y-107249536D01*
X123164777Y-107260597D01*
X123287458Y-107285000D01*
X123714250Y-107285000D01*
X123873000Y-107126250D01*
X123873000Y-106353000D01*
X124127000Y-106353000D01*
X124127000Y-107126250D01*
X124127000Y-107126250D01*
G37*
X124127000Y-107126250D02*
X124285750Y-107285000D01*
X124407179Y-107285000D01*
X124464372Y-107429454D01*
X124563701Y-107583583D01*
X124691076Y-107715484D01*
X124841644Y-107820131D01*
X125009671Y-107893540D01*
X125029691Y-107897942D01*
X124251974Y-110235845D01*
X122537008Y-113254731D01*
X120268332Y-115883017D01*
X117532359Y-118020594D01*
X114433301Y-119586040D01*
X111089201Y-120519730D01*
X107627434Y-120786098D01*
X104179859Y-120375000D01*
X100877791Y-119302093D01*
X97847006Y-117608244D01*
X95202945Y-115357972D01*
X93046320Y-112636989D01*
X91459276Y-109548936D01*
X90735151Y-107023610D01*
X90798815Y-107101185D01*
X90895506Y-107180537D01*
X91005820Y-107239502D01*
X91125518Y-107275812D01*
X91250000Y-107288072D01*
X92550000Y-107288072D01*
X92674482Y-107275812D01*
X92726607Y-107260000D01*
X92761928Y-107260000D01*
X92761928Y-109000000D01*
X92774188Y-109124482D01*
X92810498Y-109244180D01*
X92869463Y-109354494D01*
X92948815Y-109451185D01*
X93045506Y-109530537D01*
X93155820Y-109589502D01*
X93275518Y-109625812D01*
X93400000Y-109638072D01*
X96400000Y-109638072D01*
X96524482Y-109625812D01*
X96644180Y-109589502D01*
X96754494Y-109530537D01*
X96851185Y-109451185D01*
X96930537Y-109354494D01*
X96989502Y-109244180D01*
X97025812Y-109124482D01*
X97038072Y-109000000D01*
X97038072Y-107260000D01*
X97523200Y-107260000D01*
X97511291Y-107267793D01*
X97380283Y-107396086D01*
X97276689Y-107547381D01*
X97204454Y-107715916D01*
X97166331Y-107895272D01*
X97163771Y-108078617D01*
X97196872Y-108258968D01*
X97264372Y-108429454D01*
X97340000Y-108546806D01*
X97340000Y-113417000D01*
X97346851Y-113486877D01*
X97352969Y-113556803D01*
X97354084Y-113560641D01*
X97354474Y-113564618D01*
X97374764Y-113631821D01*
X97394351Y-113699240D01*
X97396190Y-113702788D01*
X97397345Y-113706613D01*
X97430299Y-113768591D01*
X97462610Y-113830925D01*
X97465103Y-113834048D01*
X97466980Y-113837578D01*
X97511355Y-113891987D01*
X97555148Y-113946846D01*
X97560631Y-113952406D01*
X97560726Y-113952522D01*
X97560834Y-113952611D01*
X97562599Y-113954401D01*
X98145599Y-114537402D01*
X98199890Y-114581997D01*
X98253625Y-114627086D01*
X98257125Y-114629010D01*
X98260216Y-114631549D01*
X98294928Y-114650161D01*
X98294928Y-115397000D01*
X98307188Y-115521482D01*
X98343498Y-115641180D01*
X98402463Y-115751494D01*
X98481815Y-115848185D01*
X98578506Y-115927537D01*
X98688820Y-115986502D01*
X98808518Y-116022812D01*
X98933000Y-116035072D01*
X100274270Y-116035072D01*
X103076599Y-118837401D01*
X103130855Y-118881968D01*
X103184625Y-118927086D01*
X103188126Y-118929011D01*
X103191215Y-118931548D01*
X103253102Y-118964732D01*
X103314604Y-118998543D01*
X103318412Y-118999751D01*
X103321935Y-119001640D01*
X103389077Y-119022167D01*
X103455987Y-119043392D01*
X103459959Y-119043838D01*
X103463781Y-119045006D01*
X103533649Y-119052103D01*
X103603389Y-119059926D01*
X103611194Y-119059980D01*
X103611347Y-119059996D01*
X103611490Y-119059982D01*
X103614000Y-119060000D01*
X113700000Y-119060000D01*
X113769877Y-119053149D01*
X113839803Y-119047031D01*
X113843641Y-119045916D01*
X113847618Y-119045526D01*
X113914821Y-119025236D01*
X113982240Y-119005649D01*
X113985788Y-119003810D01*
X113989613Y-119002655D01*
X114051591Y-118969701D01*
X114113925Y-118937390D01*
X114117048Y-118934897D01*
X114120578Y-118933020D01*
X114174987Y-118888645D01*
X114229846Y-118844852D01*
X114235406Y-118839369D01*
X114235522Y-118839274D01*
X114235611Y-118839166D01*
X114237401Y-118837401D01*
X114637401Y-118437401D01*
X114681968Y-118383145D01*
X114727086Y-118329375D01*
X114729011Y-118325874D01*
X114731548Y-118322785D01*
X114764713Y-118260933D01*
X114798543Y-118199396D01*
X114799752Y-118195584D01*
X114801639Y-118192065D01*
X114822152Y-118124969D01*
X114843392Y-118058013D01*
X114843838Y-118054041D01*
X114845006Y-118050219D01*
X114852098Y-117980395D01*
X114859926Y-117910611D01*
X114859981Y-117902796D01*
X114859995Y-117902653D01*
X114859982Y-117902520D01*
X114860000Y-117900000D01*
X114860000Y-117701018D01*
X114951185Y-117626185D01*
X115030537Y-117529494D01*
X115089502Y-117419180D01*
X115125812Y-117299482D01*
X115138072Y-117175000D01*
X115138072Y-116425000D01*
X115125812Y-116300518D01*
X115089502Y-116180820D01*
X115030537Y-116070506D01*
X114972674Y-116000000D01*
X115030537Y-115929494D01*
X115089502Y-115819180D01*
X115125812Y-115699482D01*
X115138072Y-115575000D01*
X115138072Y-114825000D01*
X115125812Y-114700518D01*
X115089502Y-114580820D01*
X115030537Y-114470506D01*
X114951185Y-114373815D01*
X114902108Y-114333538D01*
X114950000Y-114307939D01*
X115055820Y-114364502D01*
X115175518Y-114400812D01*
X115300000Y-114413072D01*
X116100000Y-114413072D01*
X116224482Y-114400812D01*
X116344180Y-114364502D01*
X116454494Y-114305537D01*
X116551185Y-114226185D01*
X116605501Y-114160000D01*
X119755126Y-114160000D01*
X119841644Y-114220131D01*
X120009671Y-114293540D01*
X120188757Y-114332915D01*
X120372079Y-114336755D01*
X120552657Y-114304914D01*
X120723610Y-114238606D01*
X120878429Y-114140355D01*
X121011215Y-114013904D01*
X121116911Y-113864070D01*
X121191492Y-113696560D01*
X121232116Y-113517754D01*
X121235040Y-113308319D01*
X121199425Y-113128448D01*
X121129550Y-112958920D01*
X121028079Y-112806193D01*
X120898875Y-112676084D01*
X120746860Y-112573549D01*
X120577825Y-112502493D01*
X120398207Y-112465623D01*
X120214849Y-112464343D01*
X120034733Y-112498701D01*
X119864722Y-112567390D01*
X119753763Y-112640000D01*
X116605501Y-112640000D01*
X116551185Y-112573815D01*
X116454494Y-112494463D01*
X116344180Y-112435498D01*
X116224482Y-112399188D01*
X116100000Y-112386928D01*
X115300000Y-112386928D01*
X115175518Y-112399188D01*
X115055820Y-112435498D01*
X114960000Y-112486716D01*
X114960000Y-111942463D01*
X115087084Y-111840285D01*
X115111175Y-111811575D01*
X115124680Y-111828134D01*
X115310397Y-111981772D01*
X115522418Y-112096412D01*
X115752669Y-112167686D01*
X115992378Y-112192881D01*
X116232416Y-112171036D01*
X116463639Y-112102983D01*
X116677241Y-111991315D01*
X116865084Y-111840285D01*
X117020015Y-111655645D01*
X117136132Y-111444429D01*
X117209012Y-111214682D01*
X117235880Y-110975154D01*
X117236000Y-110957911D01*
X117236000Y-110142089D01*
X117212480Y-109902210D01*
X117142814Y-109671467D01*
X117029658Y-109458650D01*
X116877320Y-109271866D01*
X116691603Y-109118228D01*
X116479582Y-109003588D01*
X116338771Y-108960000D01*
X117655126Y-108960000D01*
X117741644Y-109020131D01*
X117909671Y-109093540D01*
X118088757Y-109132915D01*
X118272079Y-109136755D01*
X118452657Y-109104914D01*
X118623610Y-109038606D01*
X118778429Y-108940355D01*
X118861928Y-108860840D01*
X118861928Y-109000000D01*
X118874188Y-109124482D01*
X118910498Y-109244180D01*
X118969463Y-109354494D01*
X119048815Y-109451185D01*
X119145506Y-109530537D01*
X119255820Y-109589502D01*
X119375518Y-109625812D01*
X119500000Y-109638072D01*
X122500000Y-109638072D01*
X122624482Y-109625812D01*
X122744180Y-109589502D01*
X122854494Y-109530537D01*
X122951185Y-109451185D01*
X123030537Y-109354494D01*
X123089502Y-109244180D01*
X123125812Y-109124482D01*
X123138072Y-109000000D01*
X123138072Y-107249536D01*
X123164777Y-107260597D01*
X123287458Y-107285000D01*
X123714250Y-107285000D01*
X123873000Y-107126250D01*
X123873000Y-106353000D01*
X124127000Y-106353000D01*
X124127000Y-107126250D01*
G36*
X115124680Y-96728134D02*
X115310397Y-96881772D01*
X115522418Y-96996412D01*
X115603279Y-97021443D01*
X115566331Y-97195272D01*
X115563771Y-97378617D01*
X115596872Y-97558968D01*
X115664372Y-97729454D01*
X115740000Y-97846806D01*
X115740000Y-104400000D01*
X115746851Y-104469877D01*
X115752969Y-104539803D01*
X115754084Y-104543641D01*
X115754474Y-104547618D01*
X115774764Y-104614821D01*
X115794351Y-104682240D01*
X115796190Y-104685788D01*
X115797345Y-104689613D01*
X115830299Y-104751591D01*
X115862610Y-104813925D01*
X115865103Y-104817048D01*
X115866980Y-104820578D01*
X115911355Y-104874987D01*
X115955148Y-104929846D01*
X115960631Y-104935406D01*
X115960726Y-104935522D01*
X115960834Y-104935611D01*
X115962599Y-104937401D01*
X116612599Y-105587401D01*
X116666855Y-105631968D01*
X116720625Y-105677086D01*
X116724126Y-105679011D01*
X116727215Y-105681548D01*
X116789102Y-105714732D01*
X116850604Y-105748543D01*
X116854412Y-105749751D01*
X116857935Y-105751640D01*
X116925077Y-105772167D01*
X116991987Y-105793392D01*
X116995959Y-105793838D01*
X116999781Y-105795006D01*
X117069649Y-105802103D01*
X117139389Y-105809926D01*
X117147194Y-105809980D01*
X117147347Y-105809996D01*
X117147490Y-105809982D01*
X117150000Y-105810000D01*
X117340000Y-105810000D01*
X117340000Y-106754918D01*
X117276689Y-106847381D01*
X117204454Y-107015916D01*
X117166331Y-107195272D01*
X117163771Y-107378617D01*
X117175037Y-107440000D01*
X116829701Y-107440000D01*
X116825812Y-107400518D01*
X116789502Y-107280820D01*
X116730537Y-107170506D01*
X116651185Y-107073815D01*
X116554494Y-106994463D01*
X116444180Y-106935498D01*
X116324482Y-106899188D01*
X116200000Y-106886928D01*
X115400000Y-106886928D01*
X115275518Y-106899188D01*
X115155820Y-106935498D01*
X115047428Y-106993436D01*
X115000785Y-106962270D01*
X114885223Y-106914403D01*
X114762542Y-106890000D01*
X114585750Y-106890000D01*
X114427000Y-107048750D01*
X114427000Y-107773000D01*
X114447000Y-107773000D01*
X114447000Y-108027000D01*
X114427000Y-108027000D01*
X114427000Y-108751250D01*
X114585750Y-108910000D01*
X114762542Y-108910000D01*
X114885223Y-108885597D01*
X115000785Y-108837730D01*
X115047428Y-108806564D01*
X115155820Y-108864502D01*
X115275518Y-108900812D01*
X115400000Y-108913072D01*
X115845330Y-108913072D01*
X115868012Y-108920006D01*
X115769584Y-108928964D01*
X115538361Y-108997017D01*
X115324759Y-109108685D01*
X115136916Y-109259715D01*
X115112825Y-109288425D01*
X115099320Y-109271866D01*
X114913603Y-109118228D01*
X114701582Y-109003588D01*
X114471331Y-108932314D01*
X114231622Y-108907119D01*
X113991584Y-108928964D01*
X113760361Y-108997017D01*
X113546759Y-109108685D01*
X113358916Y-109259715D01*
X113333022Y-109290575D01*
X113228474Y-109186922D01*
X113025533Y-109052579D01*
X112800282Y-108960409D01*
X112762609Y-108956538D01*
X112572000Y-109081269D01*
X112572000Y-110423000D01*
X112592000Y-110423000D01*
X112592000Y-110677000D01*
X112572000Y-110677000D01*
X112572000Y-112018731D01*
X112762609Y-112143462D01*
X112800282Y-112139591D01*
X113025533Y-112047421D01*
X113228474Y-111913078D01*
X113332137Y-111810303D01*
X113346680Y-111828134D01*
X113440000Y-111905335D01*
X113440000Y-112486716D01*
X113344180Y-112435498D01*
X113224482Y-112399188D01*
X113100000Y-112386928D01*
X112300000Y-112386928D01*
X112175518Y-112399188D01*
X112055820Y-112435498D01*
X111947428Y-112493436D01*
X111900785Y-112462270D01*
X111785223Y-112414403D01*
X111662542Y-112390000D01*
X111485750Y-112390000D01*
X111327000Y-112548750D01*
X111327000Y-113273000D01*
X111347000Y-113273000D01*
X111347000Y-113527000D01*
X111327000Y-113527000D01*
X111327000Y-114251250D01*
X111485750Y-114410000D01*
X111662542Y-114410000D01*
X111730490Y-114396484D01*
X111706763Y-114420211D01*
X111637270Y-114524215D01*
X111589403Y-114639777D01*
X111565000Y-114762458D01*
X111565000Y-114914250D01*
X111723750Y-115073000D01*
X112473000Y-115073000D01*
X112473000Y-115053000D01*
X112727000Y-115053000D01*
X112727000Y-115073000D01*
X112747000Y-115073000D01*
X112747000Y-115327000D01*
X112727000Y-115327000D01*
X112727000Y-116673000D01*
X112747000Y-116673000D01*
X112747000Y-116927000D01*
X112727000Y-116927000D01*
X112727000Y-116947000D01*
X112473000Y-116947000D01*
X112473000Y-116927000D01*
X111723750Y-116927000D01*
X111565000Y-117085750D01*
X111565000Y-117237542D01*
X111589403Y-117360223D01*
X111637270Y-117475785D01*
X111680177Y-117540000D01*
X103928802Y-117540000D01*
X102419398Y-116030596D01*
X102426458Y-116032000D01*
X103092250Y-116032000D01*
X103251000Y-115873250D01*
X103251000Y-114127000D01*
X102012750Y-114127000D01*
X101854000Y-114285750D01*
X101854000Y-115459542D01*
X101855404Y-115466602D01*
X101349072Y-114960270D01*
X101349072Y-112603000D01*
X101336812Y-112478518D01*
X101300502Y-112358820D01*
X101241537Y-112248506D01*
X101162185Y-112151815D01*
X101065494Y-112072463D01*
X100955180Y-112013498D01*
X100835482Y-111977188D01*
X100711000Y-111964928D01*
X100708060Y-111964928D01*
X100863084Y-111840285D01*
X100887175Y-111811575D01*
X100900680Y-111828134D01*
X101086397Y-111981772D01*
X101298418Y-112096412D01*
X101528669Y-112167686D01*
X101768378Y-112192881D01*
X102008416Y-112171036D01*
X102028995Y-112164979D01*
X101995763Y-112198211D01*
X101926270Y-112302215D01*
X101878403Y-112417777D01*
X101854000Y-112540458D01*
X101854000Y-113714250D01*
X102012750Y-113873000D01*
X103251000Y-113873000D01*
X103251000Y-113853000D01*
X103505000Y-113853000D01*
X103505000Y-113873000D01*
X103525000Y-113873000D01*
X103525000Y-114127000D01*
X103505000Y-114127000D01*
X103505000Y-115873250D01*
X103663750Y-116032000D01*
X104329542Y-116032000D01*
X104452223Y-116007597D01*
X104567785Y-115959730D01*
X104671789Y-115890237D01*
X104760237Y-115801789D01*
X104829730Y-115697785D01*
X104877597Y-115582223D01*
X104896786Y-115485750D01*
X111565000Y-115485750D01*
X111565000Y-115637542D01*
X111589403Y-115760223D01*
X111637270Y-115875785D01*
X111706763Y-115979789D01*
X111726974Y-116000000D01*
X111706763Y-116020211D01*
X111637270Y-116124215D01*
X111589403Y-116239777D01*
X111565000Y-116362458D01*
X111565000Y-116514250D01*
X111723750Y-116673000D01*
X112473000Y-116673000D01*
X112473000Y-115327000D01*
X111723750Y-115327000D01*
X111565000Y-115485750D01*
X104896786Y-115485750D01*
X104902000Y-115459542D01*
X104902000Y-114378511D01*
X104975518Y-114400812D01*
X105100000Y-114413072D01*
X105900000Y-114413072D01*
X106024482Y-114400812D01*
X106144180Y-114364502D01*
X106252572Y-114306564D01*
X106299215Y-114337730D01*
X106414777Y-114385597D01*
X106537458Y-114410000D01*
X106714250Y-114410000D01*
X106873000Y-114251250D01*
X106873000Y-113527000D01*
X107127000Y-113527000D01*
X107127000Y-114251250D01*
X107285750Y-114410000D01*
X107462542Y-114410000D01*
X107585223Y-114385597D01*
X107700785Y-114337730D01*
X107804789Y-114268237D01*
X107893237Y-114179789D01*
X107962730Y-114075785D01*
X108010597Y-113960223D01*
X108035000Y-113837542D01*
X108035000Y-113685750D01*
X110165000Y-113685750D01*
X110165000Y-113837542D01*
X110189403Y-113960223D01*
X110237270Y-114075785D01*
X110306763Y-114179789D01*
X110395211Y-114268237D01*
X110499215Y-114337730D01*
X110614777Y-114385597D01*
X110737458Y-114410000D01*
X110914250Y-114410000D01*
X111073000Y-114251250D01*
X111073000Y-113527000D01*
X110323750Y-113527000D01*
X110165000Y-113685750D01*
X108035000Y-113685750D01*
X107876250Y-113527000D01*
X107127000Y-113527000D01*
X106873000Y-113527000D01*
X106853000Y-113527000D01*
X106853000Y-113273000D01*
X106873000Y-113273000D01*
X106873000Y-112548750D01*
X107127000Y-112548750D01*
X107127000Y-113273000D01*
X107876250Y-113273000D01*
X108035000Y-113114250D01*
X108035000Y-112962458D01*
X110165000Y-112962458D01*
X110165000Y-113114250D01*
X110323750Y-113273000D01*
X111073000Y-113273000D01*
X111073000Y-112548750D01*
X110914250Y-112390000D01*
X110737458Y-112390000D01*
X110614777Y-112414403D01*
X110499215Y-112462270D01*
X110395211Y-112531763D01*
X110306763Y-112620211D01*
X110237270Y-112724215D01*
X110189403Y-112839777D01*
X110165000Y-112962458D01*
X108035000Y-112962458D01*
X108010597Y-112839777D01*
X107962730Y-112724215D01*
X107893237Y-112620211D01*
X107804789Y-112531763D01*
X107700785Y-112462270D01*
X107585223Y-112414403D01*
X107462542Y-112390000D01*
X107285750Y-112390000D01*
X107127000Y-112548750D01*
X106873000Y-112548750D01*
X106714250Y-112390000D01*
X106537458Y-112390000D01*
X106414777Y-112414403D01*
X106299215Y-112462270D01*
X106252572Y-112493436D01*
X106144180Y-112435498D01*
X106093000Y-112419973D01*
X106093000Y-111923971D01*
X106197084Y-111840285D01*
X106222978Y-111809425D01*
X106327526Y-111913078D01*
X106530467Y-112047421D01*
X106755718Y-112139591D01*
X106793391Y-112143462D01*
X106984000Y-112018731D01*
X106984000Y-110677000D01*
X106964000Y-110677000D01*
X106964000Y-110423000D01*
X106984000Y-110423000D01*
X106984000Y-110403000D01*
X107238000Y-110403000D01*
X107238000Y-110423000D01*
X107258000Y-110423000D01*
X107258000Y-110677000D01*
X107238000Y-110677000D01*
X107238000Y-112018731D01*
X107428609Y-112143462D01*
X107466282Y-112139591D01*
X107691533Y-112047421D01*
X107894474Y-111913078D01*
X107998137Y-111810303D01*
X108012680Y-111828134D01*
X108198397Y-111981772D01*
X108410418Y-112096412D01*
X108640669Y-112167686D01*
X108880378Y-112192881D01*
X109120416Y-112171036D01*
X109351639Y-112102983D01*
X109565241Y-111991315D01*
X109753084Y-111840285D01*
X109777175Y-111811575D01*
X109790680Y-111828134D01*
X109976397Y-111981772D01*
X110188418Y-112096412D01*
X110418669Y-112167686D01*
X110658378Y-112192881D01*
X110898416Y-112171036D01*
X111129639Y-112102983D01*
X111343241Y-111991315D01*
X111531084Y-111840285D01*
X111556978Y-111809425D01*
X111661526Y-111913078D01*
X111864467Y-112047421D01*
X112089718Y-112139591D01*
X112127391Y-112143462D01*
X112318000Y-112018731D01*
X112318000Y-110677000D01*
X112298000Y-110677000D01*
X112298000Y-110423000D01*
X112318000Y-110423000D01*
X112318000Y-109081269D01*
X112127391Y-108956538D01*
X112089718Y-108960409D01*
X111864467Y-109052579D01*
X111661526Y-109186922D01*
X111557863Y-109289697D01*
X111543320Y-109271866D01*
X111357603Y-109118228D01*
X111145582Y-109003588D01*
X110915331Y-108932314D01*
X110675622Y-108907119D01*
X110435584Y-108928964D01*
X110204361Y-108997017D01*
X109990759Y-109108685D01*
X109802916Y-109259715D01*
X109778825Y-109288425D01*
X109765320Y-109271866D01*
X109579603Y-109118228D01*
X109367582Y-109003588D01*
X109137331Y-108932314D01*
X108954260Y-108913072D01*
X109300000Y-108913072D01*
X109424482Y-108900812D01*
X109544180Y-108864502D01*
X109654494Y-108805537D01*
X109751185Y-108726185D01*
X109805501Y-108660000D01*
X110294499Y-108660000D01*
X110348815Y-108726185D01*
X110445506Y-108805537D01*
X110555820Y-108864502D01*
X110675518Y-108900812D01*
X110800000Y-108913072D01*
X111600000Y-108913072D01*
X111724482Y-108900812D01*
X111844180Y-108864502D01*
X111952572Y-108806564D01*
X111999215Y-108837730D01*
X112114777Y-108885597D01*
X112237458Y-108910000D01*
X112414250Y-108910000D01*
X112573000Y-108751250D01*
X112573000Y-108027000D01*
X112827000Y-108027000D01*
X112827000Y-108751250D01*
X112985750Y-108910000D01*
X113162542Y-108910000D01*
X113285223Y-108885597D01*
X113400785Y-108837730D01*
X113500000Y-108771437D01*
X113599215Y-108837730D01*
X113714777Y-108885597D01*
X113837458Y-108910000D01*
X114014250Y-108910000D01*
X114173000Y-108751250D01*
X114173000Y-108027000D01*
X112827000Y-108027000D01*
X112573000Y-108027000D01*
X112553000Y-108027000D01*
X112553000Y-107773000D01*
X112573000Y-107773000D01*
X112573000Y-107048750D01*
X112827000Y-107048750D01*
X112827000Y-107773000D01*
X114173000Y-107773000D01*
X114173000Y-107048750D01*
X114014250Y-106890000D01*
X113837458Y-106890000D01*
X113714777Y-106914403D01*
X113599215Y-106962270D01*
X113500000Y-107028563D01*
X113400785Y-106962270D01*
X113285223Y-106914403D01*
X113162542Y-106890000D01*
X112985750Y-106890000D01*
X112827000Y-107048750D01*
X112573000Y-107048750D01*
X112414250Y-106890000D01*
X112237458Y-106890000D01*
X112114777Y-106914403D01*
X111999215Y-106962270D01*
X111960000Y-106988473D01*
X111960000Y-106235072D01*
X113689000Y-106235072D01*
X113813482Y-106222812D01*
X113933180Y-106186502D01*
X114043494Y-106127537D01*
X114140185Y-106048185D01*
X114219537Y-105951494D01*
X114278502Y-105841180D01*
X114314812Y-105721482D01*
X114327072Y-105597000D01*
X114327072Y-104850791D01*
X114352925Y-104837390D01*
X114356048Y-104834897D01*
X114359578Y-104833020D01*
X114413987Y-104788645D01*
X114468846Y-104744852D01*
X114474406Y-104739369D01*
X114474522Y-104739274D01*
X114474611Y-104739166D01*
X114476401Y-104737401D01*
X115037401Y-104176401D01*
X115081968Y-104122145D01*
X115127086Y-104068375D01*
X115129011Y-104064874D01*
X115131548Y-104061785D01*
X115164732Y-103999898D01*
X115198543Y-103938396D01*
X115199751Y-103934588D01*
X115201640Y-103931065D01*
X115222167Y-103863923D01*
X115243392Y-103797013D01*
X115243838Y-103793041D01*
X115245006Y-103789219D01*
X115252103Y-103719351D01*
X115259926Y-103649611D01*
X115259980Y-103641806D01*
X115259996Y-103641653D01*
X115259982Y-103641510D01*
X115260000Y-103639000D01*
X115260000Y-98500000D01*
X115253149Y-98430123D01*
X115247031Y-98360197D01*
X115245916Y-98356359D01*
X115245526Y-98352382D01*
X115225236Y-98285179D01*
X115205649Y-98217760D01*
X115203810Y-98214212D01*
X115202655Y-98210387D01*
X115169691Y-98148390D01*
X115137389Y-98086074D01*
X115134897Y-98082953D01*
X115133020Y-98079422D01*
X115088641Y-98025007D01*
X115044852Y-97970154D01*
X115039369Y-97964594D01*
X115039274Y-97964478D01*
X115039166Y-97964389D01*
X115037401Y-97962599D01*
X114437401Y-97362599D01*
X114383145Y-97318032D01*
X114329375Y-97272914D01*
X114325874Y-97270989D01*
X114322785Y-97268452D01*
X114260933Y-97235287D01*
X114199396Y-97201457D01*
X114195584Y-97200248D01*
X114192065Y-97198361D01*
X114124969Y-97177848D01*
X114058013Y-97156608D01*
X114054041Y-97156162D01*
X114050219Y-97154994D01*
X113988312Y-97148705D01*
X113988312Y-97069120D01*
X114214378Y-97092881D01*
X114454416Y-97071036D01*
X114685639Y-97002983D01*
X114899241Y-96891315D01*
X115087084Y-96740285D01*
X115111175Y-96711575D01*
X115124680Y-96728134D01*
X115124680Y-96728134D01*
G37*
X115124680Y-96728134D02*
X115310397Y-96881772D01*
X115522418Y-96996412D01*
X115603279Y-97021443D01*
X115566331Y-97195272D01*
X115563771Y-97378617D01*
X115596872Y-97558968D01*
X115664372Y-97729454D01*
X115740000Y-97846806D01*
X115740000Y-104400000D01*
X115746851Y-104469877D01*
X115752969Y-104539803D01*
X115754084Y-104543641D01*
X115754474Y-104547618D01*
X115774764Y-104614821D01*
X115794351Y-104682240D01*
X115796190Y-104685788D01*
X115797345Y-104689613D01*
X115830299Y-104751591D01*
X115862610Y-104813925D01*
X115865103Y-104817048D01*
X115866980Y-104820578D01*
X115911355Y-104874987D01*
X115955148Y-104929846D01*
X115960631Y-104935406D01*
X115960726Y-104935522D01*
X115960834Y-104935611D01*
X115962599Y-104937401D01*
X116612599Y-105587401D01*
X116666855Y-105631968D01*
X116720625Y-105677086D01*
X116724126Y-105679011D01*
X116727215Y-105681548D01*
X116789102Y-105714732D01*
X116850604Y-105748543D01*
X116854412Y-105749751D01*
X116857935Y-105751640D01*
X116925077Y-105772167D01*
X116991987Y-105793392D01*
X116995959Y-105793838D01*
X116999781Y-105795006D01*
X117069649Y-105802103D01*
X117139389Y-105809926D01*
X117147194Y-105809980D01*
X117147347Y-105809996D01*
X117147490Y-105809982D01*
X117150000Y-105810000D01*
X117340000Y-105810000D01*
X117340000Y-106754918D01*
X117276689Y-106847381D01*
X117204454Y-107015916D01*
X117166331Y-107195272D01*
X117163771Y-107378617D01*
X117175037Y-107440000D01*
X116829701Y-107440000D01*
X116825812Y-107400518D01*
X116789502Y-107280820D01*
X116730537Y-107170506D01*
X116651185Y-107073815D01*
X116554494Y-106994463D01*
X116444180Y-106935498D01*
X116324482Y-106899188D01*
X116200000Y-106886928D01*
X115400000Y-106886928D01*
X115275518Y-106899188D01*
X115155820Y-106935498D01*
X115047428Y-106993436D01*
X115000785Y-106962270D01*
X114885223Y-106914403D01*
X114762542Y-106890000D01*
X114585750Y-106890000D01*
X114427000Y-107048750D01*
X114427000Y-107773000D01*
X114447000Y-107773000D01*
X114447000Y-108027000D01*
X114427000Y-108027000D01*
X114427000Y-108751250D01*
X114585750Y-108910000D01*
X114762542Y-108910000D01*
X114885223Y-108885597D01*
X115000785Y-108837730D01*
X115047428Y-108806564D01*
X115155820Y-108864502D01*
X115275518Y-108900812D01*
X115400000Y-108913072D01*
X115845330Y-108913072D01*
X115868012Y-108920006D01*
X115769584Y-108928964D01*
X115538361Y-108997017D01*
X115324759Y-109108685D01*
X115136916Y-109259715D01*
X115112825Y-109288425D01*
X115099320Y-109271866D01*
X114913603Y-109118228D01*
X114701582Y-109003588D01*
X114471331Y-108932314D01*
X114231622Y-108907119D01*
X113991584Y-108928964D01*
X113760361Y-108997017D01*
X113546759Y-109108685D01*
X113358916Y-109259715D01*
X113333022Y-109290575D01*
X113228474Y-109186922D01*
X113025533Y-109052579D01*
X112800282Y-108960409D01*
X112762609Y-108956538D01*
X112572000Y-109081269D01*
X112572000Y-110423000D01*
X112592000Y-110423000D01*
X112592000Y-110677000D01*
X112572000Y-110677000D01*
X112572000Y-112018731D01*
X112762609Y-112143462D01*
X112800282Y-112139591D01*
X113025533Y-112047421D01*
X113228474Y-111913078D01*
X113332137Y-111810303D01*
X113346680Y-111828134D01*
X113440000Y-111905335D01*
X113440000Y-112486716D01*
X113344180Y-112435498D01*
X113224482Y-112399188D01*
X113100000Y-112386928D01*
X112300000Y-112386928D01*
X112175518Y-112399188D01*
X112055820Y-112435498D01*
X111947428Y-112493436D01*
X111900785Y-112462270D01*
X111785223Y-112414403D01*
X111662542Y-112390000D01*
X111485750Y-112390000D01*
X111327000Y-112548750D01*
X111327000Y-113273000D01*
X111347000Y-113273000D01*
X111347000Y-113527000D01*
X111327000Y-113527000D01*
X111327000Y-114251250D01*
X111485750Y-114410000D01*
X111662542Y-114410000D01*
X111730490Y-114396484D01*
X111706763Y-114420211D01*
X111637270Y-114524215D01*
X111589403Y-114639777D01*
X111565000Y-114762458D01*
X111565000Y-114914250D01*
X111723750Y-115073000D01*
X112473000Y-115073000D01*
X112473000Y-115053000D01*
X112727000Y-115053000D01*
X112727000Y-115073000D01*
X112747000Y-115073000D01*
X112747000Y-115327000D01*
X112727000Y-115327000D01*
X112727000Y-116673000D01*
X112747000Y-116673000D01*
X112747000Y-116927000D01*
X112727000Y-116927000D01*
X112727000Y-116947000D01*
X112473000Y-116947000D01*
X112473000Y-116927000D01*
X111723750Y-116927000D01*
X111565000Y-117085750D01*
X111565000Y-117237542D01*
X111589403Y-117360223D01*
X111637270Y-117475785D01*
X111680177Y-117540000D01*
X103928802Y-117540000D01*
X102419398Y-116030596D01*
X102426458Y-116032000D01*
X103092250Y-116032000D01*
X103251000Y-115873250D01*
X103251000Y-114127000D01*
X102012750Y-114127000D01*
X101854000Y-114285750D01*
X101854000Y-115459542D01*
X101855404Y-115466602D01*
X101349072Y-114960270D01*
X101349072Y-112603000D01*
X101336812Y-112478518D01*
X101300502Y-112358820D01*
X101241537Y-112248506D01*
X101162185Y-112151815D01*
X101065494Y-112072463D01*
X100955180Y-112013498D01*
X100835482Y-111977188D01*
X100711000Y-111964928D01*
X100708060Y-111964928D01*
X100863084Y-111840285D01*
X100887175Y-111811575D01*
X100900680Y-111828134D01*
X101086397Y-111981772D01*
X101298418Y-112096412D01*
X101528669Y-112167686D01*
X101768378Y-112192881D01*
X102008416Y-112171036D01*
X102028995Y-112164979D01*
X101995763Y-112198211D01*
X101926270Y-112302215D01*
X101878403Y-112417777D01*
X101854000Y-112540458D01*
X101854000Y-113714250D01*
X102012750Y-113873000D01*
X103251000Y-113873000D01*
X103251000Y-113853000D01*
X103505000Y-113853000D01*
X103505000Y-113873000D01*
X103525000Y-113873000D01*
X103525000Y-114127000D01*
X103505000Y-114127000D01*
X103505000Y-115873250D01*
X103663750Y-116032000D01*
X104329542Y-116032000D01*
X104452223Y-116007597D01*
X104567785Y-115959730D01*
X104671789Y-115890237D01*
X104760237Y-115801789D01*
X104829730Y-115697785D01*
X104877597Y-115582223D01*
X104896786Y-115485750D01*
X111565000Y-115485750D01*
X111565000Y-115637542D01*
X111589403Y-115760223D01*
X111637270Y-115875785D01*
X111706763Y-115979789D01*
X111726974Y-116000000D01*
X111706763Y-116020211D01*
X111637270Y-116124215D01*
X111589403Y-116239777D01*
X111565000Y-116362458D01*
X111565000Y-116514250D01*
X111723750Y-116673000D01*
X112473000Y-116673000D01*
X112473000Y-115327000D01*
X111723750Y-115327000D01*
X111565000Y-115485750D01*
X104896786Y-115485750D01*
X104902000Y-115459542D01*
X104902000Y-114378511D01*
X104975518Y-114400812D01*
X105100000Y-114413072D01*
X105900000Y-114413072D01*
X106024482Y-114400812D01*
X106144180Y-114364502D01*
X106252572Y-114306564D01*
X106299215Y-114337730D01*
X106414777Y-114385597D01*
X106537458Y-114410000D01*
X106714250Y-114410000D01*
X106873000Y-114251250D01*
X106873000Y-113527000D01*
X107127000Y-113527000D01*
X107127000Y-114251250D01*
X107285750Y-114410000D01*
X107462542Y-114410000D01*
X107585223Y-114385597D01*
X107700785Y-114337730D01*
X107804789Y-114268237D01*
X107893237Y-114179789D01*
X107962730Y-114075785D01*
X108010597Y-113960223D01*
X108035000Y-113837542D01*
X108035000Y-113685750D01*
X110165000Y-113685750D01*
X110165000Y-113837542D01*
X110189403Y-113960223D01*
X110237270Y-114075785D01*
X110306763Y-114179789D01*
X110395211Y-114268237D01*
X110499215Y-114337730D01*
X110614777Y-114385597D01*
X110737458Y-114410000D01*
X110914250Y-114410000D01*
X111073000Y-114251250D01*
X111073000Y-113527000D01*
X110323750Y-113527000D01*
X110165000Y-113685750D01*
X108035000Y-113685750D01*
X107876250Y-113527000D01*
X107127000Y-113527000D01*
X106873000Y-113527000D01*
X106853000Y-113527000D01*
X106853000Y-113273000D01*
X106873000Y-113273000D01*
X106873000Y-112548750D01*
X107127000Y-112548750D01*
X107127000Y-113273000D01*
X107876250Y-113273000D01*
X108035000Y-113114250D01*
X108035000Y-112962458D01*
X110165000Y-112962458D01*
X110165000Y-113114250D01*
X110323750Y-113273000D01*
X111073000Y-113273000D01*
X111073000Y-112548750D01*
X110914250Y-112390000D01*
X110737458Y-112390000D01*
X110614777Y-112414403D01*
X110499215Y-112462270D01*
X110395211Y-112531763D01*
X110306763Y-112620211D01*
X110237270Y-112724215D01*
X110189403Y-112839777D01*
X110165000Y-112962458D01*
X108035000Y-112962458D01*
X108010597Y-112839777D01*
X107962730Y-112724215D01*
X107893237Y-112620211D01*
X107804789Y-112531763D01*
X107700785Y-112462270D01*
X107585223Y-112414403D01*
X107462542Y-112390000D01*
X107285750Y-112390000D01*
X107127000Y-112548750D01*
X106873000Y-112548750D01*
X106714250Y-112390000D01*
X106537458Y-112390000D01*
X106414777Y-112414403D01*
X106299215Y-112462270D01*
X106252572Y-112493436D01*
X106144180Y-112435498D01*
X106093000Y-112419973D01*
X106093000Y-111923971D01*
X106197084Y-111840285D01*
X106222978Y-111809425D01*
X106327526Y-111913078D01*
X106530467Y-112047421D01*
X106755718Y-112139591D01*
X106793391Y-112143462D01*
X106984000Y-112018731D01*
X106984000Y-110677000D01*
X106964000Y-110677000D01*
X106964000Y-110423000D01*
X106984000Y-110423000D01*
X106984000Y-110403000D01*
X107238000Y-110403000D01*
X107238000Y-110423000D01*
X107258000Y-110423000D01*
X107258000Y-110677000D01*
X107238000Y-110677000D01*
X107238000Y-112018731D01*
X107428609Y-112143462D01*
X107466282Y-112139591D01*
X107691533Y-112047421D01*
X107894474Y-111913078D01*
X107998137Y-111810303D01*
X108012680Y-111828134D01*
X108198397Y-111981772D01*
X108410418Y-112096412D01*
X108640669Y-112167686D01*
X108880378Y-112192881D01*
X109120416Y-112171036D01*
X109351639Y-112102983D01*
X109565241Y-111991315D01*
X109753084Y-111840285D01*
X109777175Y-111811575D01*
X109790680Y-111828134D01*
X109976397Y-111981772D01*
X110188418Y-112096412D01*
X110418669Y-112167686D01*
X110658378Y-112192881D01*
X110898416Y-112171036D01*
X111129639Y-112102983D01*
X111343241Y-111991315D01*
X111531084Y-111840285D01*
X111556978Y-111809425D01*
X111661526Y-111913078D01*
X111864467Y-112047421D01*
X112089718Y-112139591D01*
X112127391Y-112143462D01*
X112318000Y-112018731D01*
X112318000Y-110677000D01*
X112298000Y-110677000D01*
X112298000Y-110423000D01*
X112318000Y-110423000D01*
X112318000Y-109081269D01*
X112127391Y-108956538D01*
X112089718Y-108960409D01*
X111864467Y-109052579D01*
X111661526Y-109186922D01*
X111557863Y-109289697D01*
X111543320Y-109271866D01*
X111357603Y-109118228D01*
X111145582Y-109003588D01*
X110915331Y-108932314D01*
X110675622Y-108907119D01*
X110435584Y-108928964D01*
X110204361Y-108997017D01*
X109990759Y-109108685D01*
X109802916Y-109259715D01*
X109778825Y-109288425D01*
X109765320Y-109271866D01*
X109579603Y-109118228D01*
X109367582Y-109003588D01*
X109137331Y-108932314D01*
X108954260Y-108913072D01*
X109300000Y-108913072D01*
X109424482Y-108900812D01*
X109544180Y-108864502D01*
X109654494Y-108805537D01*
X109751185Y-108726185D01*
X109805501Y-108660000D01*
X110294499Y-108660000D01*
X110348815Y-108726185D01*
X110445506Y-108805537D01*
X110555820Y-108864502D01*
X110675518Y-108900812D01*
X110800000Y-108913072D01*
X111600000Y-108913072D01*
X111724482Y-108900812D01*
X111844180Y-108864502D01*
X111952572Y-108806564D01*
X111999215Y-108837730D01*
X112114777Y-108885597D01*
X112237458Y-108910000D01*
X112414250Y-108910000D01*
X112573000Y-108751250D01*
X112573000Y-108027000D01*
X112827000Y-108027000D01*
X112827000Y-108751250D01*
X112985750Y-108910000D01*
X113162542Y-108910000D01*
X113285223Y-108885597D01*
X113400785Y-108837730D01*
X113500000Y-108771437D01*
X113599215Y-108837730D01*
X113714777Y-108885597D01*
X113837458Y-108910000D01*
X114014250Y-108910000D01*
X114173000Y-108751250D01*
X114173000Y-108027000D01*
X112827000Y-108027000D01*
X112573000Y-108027000D01*
X112553000Y-108027000D01*
X112553000Y-107773000D01*
X112573000Y-107773000D01*
X112573000Y-107048750D01*
X112827000Y-107048750D01*
X112827000Y-107773000D01*
X114173000Y-107773000D01*
X114173000Y-107048750D01*
X114014250Y-106890000D01*
X113837458Y-106890000D01*
X113714777Y-106914403D01*
X113599215Y-106962270D01*
X113500000Y-107028563D01*
X113400785Y-106962270D01*
X113285223Y-106914403D01*
X113162542Y-106890000D01*
X112985750Y-106890000D01*
X112827000Y-107048750D01*
X112573000Y-107048750D01*
X112414250Y-106890000D01*
X112237458Y-106890000D01*
X112114777Y-106914403D01*
X111999215Y-106962270D01*
X111960000Y-106988473D01*
X111960000Y-106235072D01*
X113689000Y-106235072D01*
X113813482Y-106222812D01*
X113933180Y-106186502D01*
X114043494Y-106127537D01*
X114140185Y-106048185D01*
X114219537Y-105951494D01*
X114278502Y-105841180D01*
X114314812Y-105721482D01*
X114327072Y-105597000D01*
X114327072Y-104850791D01*
X114352925Y-104837390D01*
X114356048Y-104834897D01*
X114359578Y-104833020D01*
X114413987Y-104788645D01*
X114468846Y-104744852D01*
X114474406Y-104739369D01*
X114474522Y-104739274D01*
X114474611Y-104739166D01*
X114476401Y-104737401D01*
X115037401Y-104176401D01*
X115081968Y-104122145D01*
X115127086Y-104068375D01*
X115129011Y-104064874D01*
X115131548Y-104061785D01*
X115164732Y-103999898D01*
X115198543Y-103938396D01*
X115199751Y-103934588D01*
X115201640Y-103931065D01*
X115222167Y-103863923D01*
X115243392Y-103797013D01*
X115243838Y-103793041D01*
X115245006Y-103789219D01*
X115252103Y-103719351D01*
X115259926Y-103649611D01*
X115259980Y-103641806D01*
X115259996Y-103641653D01*
X115259982Y-103641510D01*
X115260000Y-103639000D01*
X115260000Y-98500000D01*
X115253149Y-98430123D01*
X115247031Y-98360197D01*
X115245916Y-98356359D01*
X115245526Y-98352382D01*
X115225236Y-98285179D01*
X115205649Y-98217760D01*
X115203810Y-98214212D01*
X115202655Y-98210387D01*
X115169691Y-98148390D01*
X115137389Y-98086074D01*
X115134897Y-98082953D01*
X115133020Y-98079422D01*
X115088641Y-98025007D01*
X115044852Y-97970154D01*
X115039369Y-97964594D01*
X115039274Y-97964478D01*
X115039166Y-97964389D01*
X115037401Y-97962599D01*
X114437401Y-97362599D01*
X114383145Y-97318032D01*
X114329375Y-97272914D01*
X114325874Y-97270989D01*
X114322785Y-97268452D01*
X114260933Y-97235287D01*
X114199396Y-97201457D01*
X114195584Y-97200248D01*
X114192065Y-97198361D01*
X114124969Y-97177848D01*
X114058013Y-97156608D01*
X114054041Y-97156162D01*
X114050219Y-97154994D01*
X113988312Y-97148705D01*
X113988312Y-97069120D01*
X114214378Y-97092881D01*
X114454416Y-97071036D01*
X114685639Y-97002983D01*
X114899241Y-96891315D01*
X115087084Y-96740285D01*
X115111175Y-96711575D01*
X115124680Y-96728134D01*
G36*
X103249000Y-98473000D02*
X103269000Y-98473000D01*
X103269000Y-98727000D01*
X103249000Y-98727000D01*
X103249000Y-100473250D01*
X103407750Y-100632000D01*
X103655692Y-100632000D01*
X103576689Y-100747381D01*
X103504454Y-100915916D01*
X103472765Y-101065000D01*
X103145378Y-101065000D01*
X103046860Y-100998549D01*
X102877825Y-100927493D01*
X102698207Y-100890623D01*
X102514849Y-100889343D01*
X102334733Y-100923701D01*
X102164722Y-100992390D01*
X102011291Y-101092793D01*
X101880283Y-101221086D01*
X101776689Y-101372381D01*
X101704454Y-101540916D01*
X101666331Y-101720272D01*
X101663771Y-101903617D01*
X101696872Y-102083968D01*
X101764372Y-102254454D01*
X101863701Y-102408583D01*
X101991076Y-102540484D01*
X102141644Y-102645131D01*
X102309671Y-102718540D01*
X102488757Y-102757915D01*
X102672079Y-102761755D01*
X102840388Y-102732077D01*
X102804454Y-102815916D01*
X102766331Y-102995272D01*
X102763771Y-103178617D01*
X102796872Y-103358968D01*
X102864372Y-103529454D01*
X102963701Y-103683583D01*
X103091076Y-103815484D01*
X103241644Y-103920131D01*
X103409671Y-103993540D01*
X103488025Y-104010768D01*
X103496872Y-104058968D01*
X103564372Y-104229454D01*
X103663701Y-104383583D01*
X103791076Y-104515484D01*
X103941644Y-104620131D01*
X104109671Y-104693540D01*
X104288757Y-104732915D01*
X104472079Y-104736755D01*
X104571213Y-104719275D01*
X104574188Y-104749482D01*
X104574345Y-104750000D01*
X104574188Y-104750518D01*
X104561928Y-104875000D01*
X104561928Y-105275000D01*
X104574188Y-105399482D01*
X104574345Y-105400000D01*
X104574188Y-105400518D01*
X104561928Y-105525000D01*
X104561928Y-105925000D01*
X104574188Y-106049482D01*
X104574345Y-106050000D01*
X104574188Y-106050518D01*
X104561928Y-106175000D01*
X104561928Y-106575000D01*
X104574188Y-106699482D01*
X104574345Y-106700000D01*
X104574188Y-106700518D01*
X104561928Y-106825000D01*
X104561928Y-107225000D01*
X104574188Y-107349482D01*
X104610498Y-107469180D01*
X104669463Y-107579494D01*
X104748815Y-107676185D01*
X104845506Y-107755537D01*
X104955820Y-107814502D01*
X105075518Y-107850812D01*
X105200000Y-107863072D01*
X106200000Y-107863072D01*
X106324482Y-107850812D01*
X106360230Y-107839968D01*
X105288219Y-108911979D01*
X105101584Y-108928964D01*
X104870361Y-108997017D01*
X104656759Y-109108685D01*
X104468916Y-109259715D01*
X104444825Y-109288425D01*
X104431320Y-109271866D01*
X104245603Y-109118228D01*
X104033582Y-109003588D01*
X103803331Y-108932314D01*
X103563622Y-108907119D01*
X103323584Y-108928964D01*
X103092361Y-108997017D01*
X102878759Y-109108685D01*
X102690916Y-109259715D01*
X102666825Y-109288425D01*
X102653320Y-109271866D01*
X102467603Y-109118228D01*
X102255582Y-109003588D01*
X102025331Y-108932314D01*
X101785622Y-108907119D01*
X101545584Y-108928964D01*
X101314361Y-108997017D01*
X101100759Y-109108685D01*
X100912916Y-109259715D01*
X100888825Y-109288425D01*
X100875320Y-109271866D01*
X100689603Y-109118228D01*
X100477582Y-109003588D01*
X100247331Y-108932314D01*
X100007622Y-108907119D01*
X99767584Y-108928964D01*
X99536361Y-108997017D01*
X99322759Y-109108685D01*
X99134916Y-109259715D01*
X98979985Y-109444355D01*
X98863868Y-109655571D01*
X98860000Y-109667764D01*
X98860000Y-108544747D01*
X98916911Y-108464070D01*
X98991492Y-108296560D01*
X99002737Y-108247065D01*
X99387920Y-107861882D01*
X99400000Y-107863072D01*
X100400000Y-107863072D01*
X100524482Y-107850812D01*
X100644180Y-107814502D01*
X100754494Y-107755537D01*
X100851185Y-107676185D01*
X100930537Y-107579494D01*
X100989502Y-107469180D01*
X101025812Y-107349482D01*
X101038072Y-107225000D01*
X101038072Y-106825000D01*
X101025812Y-106700518D01*
X101025655Y-106700000D01*
X101025812Y-106699482D01*
X101038072Y-106575000D01*
X101038072Y-106175000D01*
X101025812Y-106050518D01*
X101023795Y-106043870D01*
X101035000Y-105987542D01*
X101035000Y-105983750D01*
X100992738Y-105941488D01*
X100989502Y-105930820D01*
X100930537Y-105820506D01*
X100852158Y-105725000D01*
X100930537Y-105629494D01*
X100989502Y-105519180D01*
X100992738Y-105508512D01*
X101035000Y-105466250D01*
X101035000Y-105462458D01*
X101023795Y-105406130D01*
X101025812Y-105399482D01*
X101038072Y-105275000D01*
X101038072Y-104875000D01*
X101025812Y-104750518D01*
X101025655Y-104750000D01*
X101025812Y-104749482D01*
X101038072Y-104625000D01*
X101038072Y-104225000D01*
X101025812Y-104100518D01*
X101025655Y-104100000D01*
X101025812Y-104099482D01*
X101038072Y-103975000D01*
X101038072Y-103575000D01*
X101025812Y-103450518D01*
X101025655Y-103450000D01*
X101025812Y-103449482D01*
X101038072Y-103325000D01*
X101038072Y-102925000D01*
X101025812Y-102800518D01*
X101025655Y-102800000D01*
X101025812Y-102799482D01*
X101038072Y-102675000D01*
X101038072Y-102275000D01*
X101025812Y-102150518D01*
X101025655Y-102150000D01*
X101025812Y-102149482D01*
X101038072Y-102025000D01*
X101038072Y-101625000D01*
X101025812Y-101500518D01*
X101025655Y-101500000D01*
X101025812Y-101499482D01*
X101038072Y-101375000D01*
X101038072Y-100975000D01*
X101025812Y-100850518D01*
X100989502Y-100730820D01*
X100930537Y-100620506D01*
X100851185Y-100523815D01*
X100754494Y-100444463D01*
X100644180Y-100385498D01*
X100602076Y-100372726D01*
X101598000Y-99376802D01*
X101598000Y-100059542D01*
X101622403Y-100182223D01*
X101670270Y-100297785D01*
X101739763Y-100401789D01*
X101828211Y-100490237D01*
X101932215Y-100559730D01*
X102047777Y-100607597D01*
X102170458Y-100632000D01*
X102836250Y-100632000D01*
X102995000Y-100473250D01*
X102995000Y-98727000D01*
X102975000Y-98727000D01*
X102975000Y-98473000D01*
X102995000Y-98473000D01*
X102995000Y-98453000D01*
X103249000Y-98453000D01*
X103249000Y-98473000D01*
X103249000Y-98473000D01*
G37*
X103249000Y-98473000D02*
X103269000Y-98473000D01*
X103269000Y-98727000D01*
X103249000Y-98727000D01*
X103249000Y-100473250D01*
X103407750Y-100632000D01*
X103655692Y-100632000D01*
X103576689Y-100747381D01*
X103504454Y-100915916D01*
X103472765Y-101065000D01*
X103145378Y-101065000D01*
X103046860Y-100998549D01*
X102877825Y-100927493D01*
X102698207Y-100890623D01*
X102514849Y-100889343D01*
X102334733Y-100923701D01*
X102164722Y-100992390D01*
X102011291Y-101092793D01*
X101880283Y-101221086D01*
X101776689Y-101372381D01*
X101704454Y-101540916D01*
X101666331Y-101720272D01*
X101663771Y-101903617D01*
X101696872Y-102083968D01*
X101764372Y-102254454D01*
X101863701Y-102408583D01*
X101991076Y-102540484D01*
X102141644Y-102645131D01*
X102309671Y-102718540D01*
X102488757Y-102757915D01*
X102672079Y-102761755D01*
X102840388Y-102732077D01*
X102804454Y-102815916D01*
X102766331Y-102995272D01*
X102763771Y-103178617D01*
X102796872Y-103358968D01*
X102864372Y-103529454D01*
X102963701Y-103683583D01*
X103091076Y-103815484D01*
X103241644Y-103920131D01*
X103409671Y-103993540D01*
X103488025Y-104010768D01*
X103496872Y-104058968D01*
X103564372Y-104229454D01*
X103663701Y-104383583D01*
X103791076Y-104515484D01*
X103941644Y-104620131D01*
X104109671Y-104693540D01*
X104288757Y-104732915D01*
X104472079Y-104736755D01*
X104571213Y-104719275D01*
X104574188Y-104749482D01*
X104574345Y-104750000D01*
X104574188Y-104750518D01*
X104561928Y-104875000D01*
X104561928Y-105275000D01*
X104574188Y-105399482D01*
X104574345Y-105400000D01*
X104574188Y-105400518D01*
X104561928Y-105525000D01*
X104561928Y-105925000D01*
X104574188Y-106049482D01*
X104574345Y-106050000D01*
X104574188Y-106050518D01*
X104561928Y-106175000D01*
X104561928Y-106575000D01*
X104574188Y-106699482D01*
X104574345Y-106700000D01*
X104574188Y-106700518D01*
X104561928Y-106825000D01*
X104561928Y-107225000D01*
X104574188Y-107349482D01*
X104610498Y-107469180D01*
X104669463Y-107579494D01*
X104748815Y-107676185D01*
X104845506Y-107755537D01*
X104955820Y-107814502D01*
X105075518Y-107850812D01*
X105200000Y-107863072D01*
X106200000Y-107863072D01*
X106324482Y-107850812D01*
X106360230Y-107839968D01*
X105288219Y-108911979D01*
X105101584Y-108928964D01*
X104870361Y-108997017D01*
X104656759Y-109108685D01*
X104468916Y-109259715D01*
X104444825Y-109288425D01*
X104431320Y-109271866D01*
X104245603Y-109118228D01*
X104033582Y-109003588D01*
X103803331Y-108932314D01*
X103563622Y-108907119D01*
X103323584Y-108928964D01*
X103092361Y-108997017D01*
X102878759Y-109108685D01*
X102690916Y-109259715D01*
X102666825Y-109288425D01*
X102653320Y-109271866D01*
X102467603Y-109118228D01*
X102255582Y-109003588D01*
X102025331Y-108932314D01*
X101785622Y-108907119D01*
X101545584Y-108928964D01*
X101314361Y-108997017D01*
X101100759Y-109108685D01*
X100912916Y-109259715D01*
X100888825Y-109288425D01*
X100875320Y-109271866D01*
X100689603Y-109118228D01*
X100477582Y-109003588D01*
X100247331Y-108932314D01*
X100007622Y-108907119D01*
X99767584Y-108928964D01*
X99536361Y-108997017D01*
X99322759Y-109108685D01*
X99134916Y-109259715D01*
X98979985Y-109444355D01*
X98863868Y-109655571D01*
X98860000Y-109667764D01*
X98860000Y-108544747D01*
X98916911Y-108464070D01*
X98991492Y-108296560D01*
X99002737Y-108247065D01*
X99387920Y-107861882D01*
X99400000Y-107863072D01*
X100400000Y-107863072D01*
X100524482Y-107850812D01*
X100644180Y-107814502D01*
X100754494Y-107755537D01*
X100851185Y-107676185D01*
X100930537Y-107579494D01*
X100989502Y-107469180D01*
X101025812Y-107349482D01*
X101038072Y-107225000D01*
X101038072Y-106825000D01*
X101025812Y-106700518D01*
X101025655Y-106700000D01*
X101025812Y-106699482D01*
X101038072Y-106575000D01*
X101038072Y-106175000D01*
X101025812Y-106050518D01*
X101023795Y-106043870D01*
X101035000Y-105987542D01*
X101035000Y-105983750D01*
X100992738Y-105941488D01*
X100989502Y-105930820D01*
X100930537Y-105820506D01*
X100852158Y-105725000D01*
X100930537Y-105629494D01*
X100989502Y-105519180D01*
X100992738Y-105508512D01*
X101035000Y-105466250D01*
X101035000Y-105462458D01*
X101023795Y-105406130D01*
X101025812Y-105399482D01*
X101038072Y-105275000D01*
X101038072Y-104875000D01*
X101025812Y-104750518D01*
X101025655Y-104750000D01*
X101025812Y-104749482D01*
X101038072Y-104625000D01*
X101038072Y-104225000D01*
X101025812Y-104100518D01*
X101025655Y-104100000D01*
X101025812Y-104099482D01*
X101038072Y-103975000D01*
X101038072Y-103575000D01*
X101025812Y-103450518D01*
X101025655Y-103450000D01*
X101025812Y-103449482D01*
X101038072Y-103325000D01*
X101038072Y-102925000D01*
X101025812Y-102800518D01*
X101025655Y-102800000D01*
X101025812Y-102799482D01*
X101038072Y-102675000D01*
X101038072Y-102275000D01*
X101025812Y-102150518D01*
X101025655Y-102150000D01*
X101025812Y-102149482D01*
X101038072Y-102025000D01*
X101038072Y-101625000D01*
X101025812Y-101500518D01*
X101025655Y-101500000D01*
X101025812Y-101499482D01*
X101038072Y-101375000D01*
X101038072Y-100975000D01*
X101025812Y-100850518D01*
X100989502Y-100730820D01*
X100930537Y-100620506D01*
X100851185Y-100523815D01*
X100754494Y-100444463D01*
X100644180Y-100385498D01*
X100602076Y-100372726D01*
X101598000Y-99376802D01*
X101598000Y-100059542D01*
X101622403Y-100182223D01*
X101670270Y-100297785D01*
X101739763Y-100401789D01*
X101828211Y-100490237D01*
X101932215Y-100559730D01*
X102047777Y-100607597D01*
X102170458Y-100632000D01*
X102836250Y-100632000D01*
X102995000Y-100473250D01*
X102995000Y-98727000D01*
X102975000Y-98727000D01*
X102975000Y-98473000D01*
X102995000Y-98473000D01*
X102995000Y-98453000D01*
X103249000Y-98453000D01*
X103249000Y-98473000D01*
G36*
X111577176Y-85573356D02*
X114893902Y-86600055D01*
X117948042Y-88251422D01*
X120623263Y-90464557D01*
X122817669Y-93155164D01*
X124447674Y-96220758D01*
X125107644Y-98406686D01*
X125101185Y-98398815D01*
X125004494Y-98319463D01*
X124894180Y-98260498D01*
X124774482Y-98224188D01*
X124650000Y-98211928D01*
X123350000Y-98211928D01*
X123225518Y-98224188D01*
X123173393Y-98240000D01*
X123138072Y-98240000D01*
X123138072Y-96500000D01*
X123125812Y-96375518D01*
X123089502Y-96255820D01*
X123030537Y-96145506D01*
X122951185Y-96048815D01*
X122854494Y-95969463D01*
X122744180Y-95910498D01*
X122624482Y-95874188D01*
X122500000Y-95861928D01*
X119500000Y-95861928D01*
X119375518Y-95874188D01*
X119255820Y-95910498D01*
X119145506Y-95969463D01*
X119048815Y-96048815D01*
X118969463Y-96145506D01*
X118910498Y-96255820D01*
X118874188Y-96375518D01*
X118861928Y-96500000D01*
X118861928Y-98434653D01*
X118811285Y-98467793D01*
X118680277Y-98596086D01*
X118576683Y-98747381D01*
X118504448Y-98915916D01*
X118466325Y-99095272D01*
X118463765Y-99278617D01*
X118496866Y-99458968D01*
X118564366Y-99629454D01*
X118663695Y-99783583D01*
X118791070Y-99915484D01*
X118941638Y-100020131D01*
X119109665Y-100093540D01*
X119121295Y-100096097D01*
X119427980Y-100402782D01*
X119262452Y-100469660D01*
X119251611Y-100476754D01*
X119246860Y-100473549D01*
X119077825Y-100402493D01*
X118898207Y-100365623D01*
X118714849Y-100364343D01*
X118534733Y-100398701D01*
X118364722Y-100467390D01*
X118211291Y-100567793D01*
X118080283Y-100696086D01*
X117976689Y-100847381D01*
X117904454Y-101015916D01*
X117866331Y-101195272D01*
X117863771Y-101378617D01*
X117896872Y-101558968D01*
X117964372Y-101729454D01*
X118045665Y-101855596D01*
X118046851Y-101867699D01*
X118052969Y-101937625D01*
X118054084Y-101941463D01*
X118054474Y-101945440D01*
X118074764Y-102012643D01*
X118094351Y-102080062D01*
X118096190Y-102083610D01*
X118097345Y-102087435D01*
X118130299Y-102149413D01*
X118162610Y-102211747D01*
X118165103Y-102214870D01*
X118166980Y-102218400D01*
X118211355Y-102272809D01*
X118255148Y-102327668D01*
X118260631Y-102333228D01*
X118260726Y-102333344D01*
X118260834Y-102333433D01*
X118262599Y-102335223D01*
X120489797Y-104562421D01*
X120544053Y-104606988D01*
X120597823Y-104652106D01*
X120601324Y-104654031D01*
X120604413Y-104656568D01*
X120666321Y-104689763D01*
X120727803Y-104723563D01*
X120731609Y-104724770D01*
X120735133Y-104726660D01*
X120802344Y-104747208D01*
X120869186Y-104768412D01*
X120873152Y-104768857D01*
X120876979Y-104770027D01*
X120946908Y-104777130D01*
X120947479Y-104777194D01*
X120834733Y-104798701D01*
X120664722Y-104867390D01*
X120511291Y-104967793D01*
X120380283Y-105096086D01*
X120276689Y-105247381D01*
X120204454Y-105415916D01*
X120166331Y-105595272D01*
X120163771Y-105778617D01*
X120196872Y-105958968D01*
X120264372Y-106129454D01*
X120363701Y-106283583D01*
X120439358Y-106361928D01*
X119500000Y-106361928D01*
X119375518Y-106374188D01*
X119255820Y-106410498D01*
X119145506Y-106469463D01*
X119048815Y-106548815D01*
X118969463Y-106645506D01*
X118910498Y-106755820D01*
X118894998Y-106806915D01*
X118860000Y-106754238D01*
X118860000Y-105594747D01*
X118916911Y-105514070D01*
X118991492Y-105346560D01*
X119032116Y-105167754D01*
X119035040Y-104958319D01*
X118999425Y-104778448D01*
X118929550Y-104608920D01*
X118828079Y-104456193D01*
X118698875Y-104326084D01*
X118546860Y-104223549D01*
X118377825Y-104152493D01*
X118198207Y-104115623D01*
X118014849Y-104114343D01*
X117834733Y-104148701D01*
X117664722Y-104217390D01*
X117553763Y-104290000D01*
X117464802Y-104290000D01*
X117260000Y-104085198D01*
X117260000Y-97844747D01*
X117316911Y-97764070D01*
X117391492Y-97596560D01*
X117432116Y-97417754D01*
X117435040Y-97208319D01*
X117399425Y-97028448D01*
X117329550Y-96858920D01*
X117228079Y-96706193D01*
X117098875Y-96576084D01*
X117033150Y-96531752D01*
X117136132Y-96344429D01*
X117209012Y-96114682D01*
X117235880Y-95875154D01*
X117236000Y-95857911D01*
X117236000Y-95042089D01*
X117212480Y-94802210D01*
X117142814Y-94571467D01*
X117029658Y-94358650D01*
X116877320Y-94171866D01*
X116691603Y-94018228D01*
X116479582Y-93903588D01*
X116249331Y-93832314D01*
X116009622Y-93807119D01*
X115769584Y-93828964D01*
X115538361Y-93897017D01*
X115324759Y-94008685D01*
X115136916Y-94159715D01*
X115112825Y-94188425D01*
X115099320Y-94171866D01*
X114983000Y-94075638D01*
X114983000Y-93823000D01*
X114976144Y-93753073D01*
X114970030Y-93683197D01*
X114968916Y-93679364D01*
X114968526Y-93675382D01*
X114948224Y-93608138D01*
X114928649Y-93540760D01*
X114926810Y-93537212D01*
X114925655Y-93533387D01*
X114892691Y-93471390D01*
X114860389Y-93409074D01*
X114857897Y-93405953D01*
X114856020Y-93402422D01*
X114811641Y-93348007D01*
X114767852Y-93293154D01*
X114762369Y-93287594D01*
X114762274Y-93287478D01*
X114762166Y-93287389D01*
X114760401Y-93285599D01*
X114337401Y-92862599D01*
X114283145Y-92818032D01*
X114229375Y-92772914D01*
X114225874Y-92770989D01*
X114222785Y-92768452D01*
X114160933Y-92735287D01*
X114099396Y-92701457D01*
X114095584Y-92700248D01*
X114092065Y-92698361D01*
X114024969Y-92677848D01*
X113958013Y-92656608D01*
X113954041Y-92656162D01*
X113950219Y-92654994D01*
X113880351Y-92647897D01*
X113810611Y-92640074D01*
X113802806Y-92640020D01*
X113802653Y-92640004D01*
X113802510Y-92640018D01*
X113800000Y-92640000D01*
X107700000Y-92640000D01*
X107630119Y-92646852D01*
X107560197Y-92652969D01*
X107556359Y-92654084D01*
X107552382Y-92654474D01*
X107485212Y-92674754D01*
X107417761Y-92694350D01*
X107414210Y-92696191D01*
X107410387Y-92697345D01*
X107348426Y-92730290D01*
X107286075Y-92762610D01*
X107282952Y-92765103D01*
X107279422Y-92766980D01*
X107225013Y-92811355D01*
X107170154Y-92855148D01*
X107164594Y-92860631D01*
X107164478Y-92860726D01*
X107164389Y-92860834D01*
X107162599Y-92862599D01*
X106573599Y-93451599D01*
X106529032Y-93505855D01*
X106483914Y-93559625D01*
X106481989Y-93563126D01*
X106479452Y-93566215D01*
X106446287Y-93628067D01*
X106412457Y-93689604D01*
X106411248Y-93693416D01*
X106409361Y-93696935D01*
X106388848Y-93764031D01*
X106367608Y-93830987D01*
X106367162Y-93834959D01*
X106365994Y-93838781D01*
X106358897Y-93908649D01*
X106351074Y-93978389D01*
X106351020Y-93986194D01*
X106351004Y-93986347D01*
X106351018Y-93986490D01*
X106351000Y-93989000D01*
X106351000Y-94076029D01*
X106246916Y-94159715D01*
X106222825Y-94188425D01*
X106209320Y-94171866D01*
X106093000Y-94075638D01*
X106093000Y-94033000D01*
X106086149Y-93963123D01*
X106080031Y-93893197D01*
X106078916Y-93889359D01*
X106078526Y-93885382D01*
X106058236Y-93818179D01*
X106038649Y-93750760D01*
X106036810Y-93747212D01*
X106035655Y-93743387D01*
X106002691Y-93681390D01*
X105970389Y-93619074D01*
X105967897Y-93615953D01*
X105966020Y-93612422D01*
X105921641Y-93558007D01*
X105877852Y-93503154D01*
X105872369Y-93497594D01*
X105872274Y-93497478D01*
X105872166Y-93497389D01*
X105870401Y-93495599D01*
X105237401Y-92862599D01*
X105183145Y-92818032D01*
X105129375Y-92772914D01*
X105125874Y-92770989D01*
X105122785Y-92768452D01*
X105060933Y-92735287D01*
X104999396Y-92701457D01*
X104995584Y-92700248D01*
X104992065Y-92698361D01*
X104924969Y-92677848D01*
X104858013Y-92656608D01*
X104854041Y-92656162D01*
X104850219Y-92654994D01*
X104780351Y-92647897D01*
X104710611Y-92640074D01*
X104702806Y-92640020D01*
X104702653Y-92640004D01*
X104702510Y-92640018D01*
X104700000Y-92640000D01*
X99200000Y-92640000D01*
X99130123Y-92646851D01*
X99060197Y-92652969D01*
X99056359Y-92654084D01*
X99052382Y-92654474D01*
X98985179Y-92674764D01*
X98917760Y-92694351D01*
X98914212Y-92696190D01*
X98910387Y-92697345D01*
X98848390Y-92730309D01*
X98786074Y-92762611D01*
X98782953Y-92765103D01*
X98779422Y-92766980D01*
X98725007Y-92811359D01*
X98670154Y-92855148D01*
X98664594Y-92860631D01*
X98664478Y-92860726D01*
X98664389Y-92860834D01*
X98662599Y-92862599D01*
X98062599Y-93462599D01*
X98018032Y-93516855D01*
X97972914Y-93570625D01*
X97970989Y-93574126D01*
X97968452Y-93577215D01*
X97935287Y-93639067D01*
X97901457Y-93700604D01*
X97900248Y-93704416D01*
X97898361Y-93707935D01*
X97877848Y-93775031D01*
X97856608Y-93841987D01*
X97856162Y-93845959D01*
X97854994Y-93849781D01*
X97847897Y-93919649D01*
X97840074Y-93989389D01*
X97840020Y-93997194D01*
X97840004Y-93997347D01*
X97840018Y-93997490D01*
X97840000Y-94000000D01*
X97840000Y-99648788D01*
X97249387Y-100239401D01*
X97136713Y-100163402D01*
X96967678Y-100092346D01*
X96788060Y-100055476D01*
X96604702Y-100054196D01*
X96424586Y-100088554D01*
X96254575Y-100157243D01*
X96143616Y-100229853D01*
X95133343Y-100229853D01*
X95135040Y-100108319D01*
X95099425Y-99928448D01*
X95029550Y-99758920D01*
X94928079Y-99606193D01*
X94798875Y-99476084D01*
X94646860Y-99373549D01*
X94477825Y-99302493D01*
X94411386Y-99288855D01*
X94399425Y-99228448D01*
X94362174Y-99138072D01*
X96400000Y-99138072D01*
X96524482Y-99125812D01*
X96644180Y-99089502D01*
X96754494Y-99030537D01*
X96851185Y-98951185D01*
X96930537Y-98854494D01*
X96989502Y-98744180D01*
X97025812Y-98624482D01*
X97038072Y-98500000D01*
X97038072Y-96500000D01*
X97025812Y-96375518D01*
X96989502Y-96255820D01*
X96930537Y-96145506D01*
X96851185Y-96048815D01*
X96754494Y-95969463D01*
X96644180Y-95910498D01*
X96524482Y-95874188D01*
X96400000Y-95861928D01*
X93400000Y-95861928D01*
X93275518Y-95874188D01*
X93155820Y-95910498D01*
X93045506Y-95969463D01*
X92948815Y-96048815D01*
X92869463Y-96145506D01*
X92810498Y-96255820D01*
X92774188Y-96375518D01*
X92761928Y-96500000D01*
X92761928Y-98250464D01*
X92735223Y-98239403D01*
X92612542Y-98215000D01*
X92185750Y-98215000D01*
X92027000Y-98373750D01*
X92027000Y-99147000D01*
X91773000Y-99147000D01*
X91773000Y-98373750D01*
X91614250Y-98215000D01*
X91187458Y-98215000D01*
X91064777Y-98239403D01*
X90949215Y-98287270D01*
X90912659Y-98311696D01*
X91648582Y-95991773D01*
X93321231Y-92949237D01*
X95552989Y-90289531D01*
X98258850Y-88113963D01*
X101335749Y-86505399D01*
X104666486Y-85525110D01*
X108124197Y-85210434D01*
X111577176Y-85573356D01*
X111577176Y-85573356D01*
G37*
X111577176Y-85573356D02*
X114893902Y-86600055D01*
X117948042Y-88251422D01*
X120623263Y-90464557D01*
X122817669Y-93155164D01*
X124447674Y-96220758D01*
X125107644Y-98406686D01*
X125101185Y-98398815D01*
X125004494Y-98319463D01*
X124894180Y-98260498D01*
X124774482Y-98224188D01*
X124650000Y-98211928D01*
X123350000Y-98211928D01*
X123225518Y-98224188D01*
X123173393Y-98240000D01*
X123138072Y-98240000D01*
X123138072Y-96500000D01*
X123125812Y-96375518D01*
X123089502Y-96255820D01*
X123030537Y-96145506D01*
X122951185Y-96048815D01*
X122854494Y-95969463D01*
X122744180Y-95910498D01*
X122624482Y-95874188D01*
X122500000Y-95861928D01*
X119500000Y-95861928D01*
X119375518Y-95874188D01*
X119255820Y-95910498D01*
X119145506Y-95969463D01*
X119048815Y-96048815D01*
X118969463Y-96145506D01*
X118910498Y-96255820D01*
X118874188Y-96375518D01*
X118861928Y-96500000D01*
X118861928Y-98434653D01*
X118811285Y-98467793D01*
X118680277Y-98596086D01*
X118576683Y-98747381D01*
X118504448Y-98915916D01*
X118466325Y-99095272D01*
X118463765Y-99278617D01*
X118496866Y-99458968D01*
X118564366Y-99629454D01*
X118663695Y-99783583D01*
X118791070Y-99915484D01*
X118941638Y-100020131D01*
X119109665Y-100093540D01*
X119121295Y-100096097D01*
X119427980Y-100402782D01*
X119262452Y-100469660D01*
X119251611Y-100476754D01*
X119246860Y-100473549D01*
X119077825Y-100402493D01*
X118898207Y-100365623D01*
X118714849Y-100364343D01*
X118534733Y-100398701D01*
X118364722Y-100467390D01*
X118211291Y-100567793D01*
X118080283Y-100696086D01*
X117976689Y-100847381D01*
X117904454Y-101015916D01*
X117866331Y-101195272D01*
X117863771Y-101378617D01*
X117896872Y-101558968D01*
X117964372Y-101729454D01*
X118045665Y-101855596D01*
X118046851Y-101867699D01*
X118052969Y-101937625D01*
X118054084Y-101941463D01*
X118054474Y-101945440D01*
X118074764Y-102012643D01*
X118094351Y-102080062D01*
X118096190Y-102083610D01*
X118097345Y-102087435D01*
X118130299Y-102149413D01*
X118162610Y-102211747D01*
X118165103Y-102214870D01*
X118166980Y-102218400D01*
X118211355Y-102272809D01*
X118255148Y-102327668D01*
X118260631Y-102333228D01*
X118260726Y-102333344D01*
X118260834Y-102333433D01*
X118262599Y-102335223D01*
X120489797Y-104562421D01*
X120544053Y-104606988D01*
X120597823Y-104652106D01*
X120601324Y-104654031D01*
X120604413Y-104656568D01*
X120666321Y-104689763D01*
X120727803Y-104723563D01*
X120731609Y-104724770D01*
X120735133Y-104726660D01*
X120802344Y-104747208D01*
X120869186Y-104768412D01*
X120873152Y-104768857D01*
X120876979Y-104770027D01*
X120946908Y-104777130D01*
X120947479Y-104777194D01*
X120834733Y-104798701D01*
X120664722Y-104867390D01*
X120511291Y-104967793D01*
X120380283Y-105096086D01*
X120276689Y-105247381D01*
X120204454Y-105415916D01*
X120166331Y-105595272D01*
X120163771Y-105778617D01*
X120196872Y-105958968D01*
X120264372Y-106129454D01*
X120363701Y-106283583D01*
X120439358Y-106361928D01*
X119500000Y-106361928D01*
X119375518Y-106374188D01*
X119255820Y-106410498D01*
X119145506Y-106469463D01*
X119048815Y-106548815D01*
X118969463Y-106645506D01*
X118910498Y-106755820D01*
X118894998Y-106806915D01*
X118860000Y-106754238D01*
X118860000Y-105594747D01*
X118916911Y-105514070D01*
X118991492Y-105346560D01*
X119032116Y-105167754D01*
X119035040Y-104958319D01*
X118999425Y-104778448D01*
X118929550Y-104608920D01*
X118828079Y-104456193D01*
X118698875Y-104326084D01*
X118546860Y-104223549D01*
X118377825Y-104152493D01*
X118198207Y-104115623D01*
X118014849Y-104114343D01*
X117834733Y-104148701D01*
X117664722Y-104217390D01*
X117553763Y-104290000D01*
X117464802Y-104290000D01*
X117260000Y-104085198D01*
X117260000Y-97844747D01*
X117316911Y-97764070D01*
X117391492Y-97596560D01*
X117432116Y-97417754D01*
X117435040Y-97208319D01*
X117399425Y-97028448D01*
X117329550Y-96858920D01*
X117228079Y-96706193D01*
X117098875Y-96576084D01*
X117033150Y-96531752D01*
X117136132Y-96344429D01*
X117209012Y-96114682D01*
X117235880Y-95875154D01*
X117236000Y-95857911D01*
X117236000Y-95042089D01*
X117212480Y-94802210D01*
X117142814Y-94571467D01*
X117029658Y-94358650D01*
X116877320Y-94171866D01*
X116691603Y-94018228D01*
X116479582Y-93903588D01*
X116249331Y-93832314D01*
X116009622Y-93807119D01*
X115769584Y-93828964D01*
X115538361Y-93897017D01*
X115324759Y-94008685D01*
X115136916Y-94159715D01*
X115112825Y-94188425D01*
X115099320Y-94171866D01*
X114983000Y-94075638D01*
X114983000Y-93823000D01*
X114976144Y-93753073D01*
X114970030Y-93683197D01*
X114968916Y-93679364D01*
X114968526Y-93675382D01*
X114948224Y-93608138D01*
X114928649Y-93540760D01*
X114926810Y-93537212D01*
X114925655Y-93533387D01*
X114892691Y-93471390D01*
X114860389Y-93409074D01*
X114857897Y-93405953D01*
X114856020Y-93402422D01*
X114811641Y-93348007D01*
X114767852Y-93293154D01*
X114762369Y-93287594D01*
X114762274Y-93287478D01*
X114762166Y-93287389D01*
X114760401Y-93285599D01*
X114337401Y-92862599D01*
X114283145Y-92818032D01*
X114229375Y-92772914D01*
X114225874Y-92770989D01*
X114222785Y-92768452D01*
X114160933Y-92735287D01*
X114099396Y-92701457D01*
X114095584Y-92700248D01*
X114092065Y-92698361D01*
X114024969Y-92677848D01*
X113958013Y-92656608D01*
X113954041Y-92656162D01*
X113950219Y-92654994D01*
X113880351Y-92647897D01*
X113810611Y-92640074D01*
X113802806Y-92640020D01*
X113802653Y-92640004D01*
X113802510Y-92640018D01*
X113800000Y-92640000D01*
X107700000Y-92640000D01*
X107630119Y-92646852D01*
X107560197Y-92652969D01*
X107556359Y-92654084D01*
X107552382Y-92654474D01*
X107485212Y-92674754D01*
X107417761Y-92694350D01*
X107414210Y-92696191D01*
X107410387Y-92697345D01*
X107348426Y-92730290D01*
X107286075Y-92762610D01*
X107282952Y-92765103D01*
X107279422Y-92766980D01*
X107225013Y-92811355D01*
X107170154Y-92855148D01*
X107164594Y-92860631D01*
X107164478Y-92860726D01*
X107164389Y-92860834D01*
X107162599Y-92862599D01*
X106573599Y-93451599D01*
X106529032Y-93505855D01*
X106483914Y-93559625D01*
X106481989Y-93563126D01*
X106479452Y-93566215D01*
X106446287Y-93628067D01*
X106412457Y-93689604D01*
X106411248Y-93693416D01*
X106409361Y-93696935D01*
X106388848Y-93764031D01*
X106367608Y-93830987D01*
X106367162Y-93834959D01*
X106365994Y-93838781D01*
X106358897Y-93908649D01*
X106351074Y-93978389D01*
X106351020Y-93986194D01*
X106351004Y-93986347D01*
X106351018Y-93986490D01*
X106351000Y-93989000D01*
X106351000Y-94076029D01*
X106246916Y-94159715D01*
X106222825Y-94188425D01*
X106209320Y-94171866D01*
X106093000Y-94075638D01*
X106093000Y-94033000D01*
X106086149Y-93963123D01*
X106080031Y-93893197D01*
X106078916Y-93889359D01*
X106078526Y-93885382D01*
X106058236Y-93818179D01*
X106038649Y-93750760D01*
X106036810Y-93747212D01*
X106035655Y-93743387D01*
X106002691Y-93681390D01*
X105970389Y-93619074D01*
X105967897Y-93615953D01*
X105966020Y-93612422D01*
X105921641Y-93558007D01*
X105877852Y-93503154D01*
X105872369Y-93497594D01*
X105872274Y-93497478D01*
X105872166Y-93497389D01*
X105870401Y-93495599D01*
X105237401Y-92862599D01*
X105183145Y-92818032D01*
X105129375Y-92772914D01*
X105125874Y-92770989D01*
X105122785Y-92768452D01*
X105060933Y-92735287D01*
X104999396Y-92701457D01*
X104995584Y-92700248D01*
X104992065Y-92698361D01*
X104924969Y-92677848D01*
X104858013Y-92656608D01*
X104854041Y-92656162D01*
X104850219Y-92654994D01*
X104780351Y-92647897D01*
X104710611Y-92640074D01*
X104702806Y-92640020D01*
X104702653Y-92640004D01*
X104702510Y-92640018D01*
X104700000Y-92640000D01*
X99200000Y-92640000D01*
X99130123Y-92646851D01*
X99060197Y-92652969D01*
X99056359Y-92654084D01*
X99052382Y-92654474D01*
X98985179Y-92674764D01*
X98917760Y-92694351D01*
X98914212Y-92696190D01*
X98910387Y-92697345D01*
X98848390Y-92730309D01*
X98786074Y-92762611D01*
X98782953Y-92765103D01*
X98779422Y-92766980D01*
X98725007Y-92811359D01*
X98670154Y-92855148D01*
X98664594Y-92860631D01*
X98664478Y-92860726D01*
X98664389Y-92860834D01*
X98662599Y-92862599D01*
X98062599Y-93462599D01*
X98018032Y-93516855D01*
X97972914Y-93570625D01*
X97970989Y-93574126D01*
X97968452Y-93577215D01*
X97935287Y-93639067D01*
X97901457Y-93700604D01*
X97900248Y-93704416D01*
X97898361Y-93707935D01*
X97877848Y-93775031D01*
X97856608Y-93841987D01*
X97856162Y-93845959D01*
X97854994Y-93849781D01*
X97847897Y-93919649D01*
X97840074Y-93989389D01*
X97840020Y-93997194D01*
X97840004Y-93997347D01*
X97840018Y-93997490D01*
X97840000Y-94000000D01*
X97840000Y-99648788D01*
X97249387Y-100239401D01*
X97136713Y-100163402D01*
X96967678Y-100092346D01*
X96788060Y-100055476D01*
X96604702Y-100054196D01*
X96424586Y-100088554D01*
X96254575Y-100157243D01*
X96143616Y-100229853D01*
X95133343Y-100229853D01*
X95135040Y-100108319D01*
X95099425Y-99928448D01*
X95029550Y-99758920D01*
X94928079Y-99606193D01*
X94798875Y-99476084D01*
X94646860Y-99373549D01*
X94477825Y-99302493D01*
X94411386Y-99288855D01*
X94399425Y-99228448D01*
X94362174Y-99138072D01*
X96400000Y-99138072D01*
X96524482Y-99125812D01*
X96644180Y-99089502D01*
X96754494Y-99030537D01*
X96851185Y-98951185D01*
X96930537Y-98854494D01*
X96989502Y-98744180D01*
X97025812Y-98624482D01*
X97038072Y-98500000D01*
X97038072Y-96500000D01*
X97025812Y-96375518D01*
X96989502Y-96255820D01*
X96930537Y-96145506D01*
X96851185Y-96048815D01*
X96754494Y-95969463D01*
X96644180Y-95910498D01*
X96524482Y-95874188D01*
X96400000Y-95861928D01*
X93400000Y-95861928D01*
X93275518Y-95874188D01*
X93155820Y-95910498D01*
X93045506Y-95969463D01*
X92948815Y-96048815D01*
X92869463Y-96145506D01*
X92810498Y-96255820D01*
X92774188Y-96375518D01*
X92761928Y-96500000D01*
X92761928Y-98250464D01*
X92735223Y-98239403D01*
X92612542Y-98215000D01*
X92185750Y-98215000D01*
X92027000Y-98373750D01*
X92027000Y-99147000D01*
X91773000Y-99147000D01*
X91773000Y-98373750D01*
X91614250Y-98215000D01*
X91187458Y-98215000D01*
X91064777Y-98239403D01*
X90949215Y-98287270D01*
X90912659Y-98311696D01*
X91648582Y-95991773D01*
X93321231Y-92949237D01*
X95552989Y-90289531D01*
X98258850Y-88113963D01*
X101335749Y-86505399D01*
X104666486Y-85525110D01*
X108124197Y-85210434D01*
X111577176Y-85573356D01*
G36*
X109016000Y-95323000D02*
X110540000Y-95323000D01*
X110540000Y-95303000D01*
X110794000Y-95303000D01*
X110794000Y-95323000D01*
X110814000Y-95323000D01*
X110814000Y-95577000D01*
X110794000Y-95577000D01*
X110794000Y-96918731D01*
X110984609Y-97043462D01*
X111022282Y-97039591D01*
X111247533Y-96947421D01*
X111450474Y-96813078D01*
X111463456Y-96800207D01*
X111460258Y-96806190D01*
X111423948Y-96925888D01*
X111411688Y-97050370D01*
X111411688Y-98749630D01*
X111423948Y-98874112D01*
X111428117Y-98887857D01*
X111417763Y-98898211D01*
X111348270Y-99002215D01*
X111300403Y-99117777D01*
X111276000Y-99240458D01*
X111276000Y-100414250D01*
X111434750Y-100573000D01*
X112673000Y-100573000D01*
X112673000Y-100553000D01*
X112927000Y-100553000D01*
X112927000Y-100573000D01*
X112947000Y-100573000D01*
X112947000Y-100827000D01*
X112927000Y-100827000D01*
X112927000Y-100847000D01*
X112673000Y-100847000D01*
X112673000Y-100827000D01*
X111434750Y-100827000D01*
X111276000Y-100985750D01*
X111276000Y-102159542D01*
X111300403Y-102282223D01*
X111348270Y-102397785D01*
X111381399Y-102447366D01*
X111380463Y-102448506D01*
X111321498Y-102558820D01*
X111285188Y-102678518D01*
X111272928Y-102803000D01*
X111272928Y-103549209D01*
X111247074Y-103562611D01*
X111243953Y-103565103D01*
X111240422Y-103566980D01*
X111186007Y-103611359D01*
X111131154Y-103655148D01*
X111125594Y-103660631D01*
X111125478Y-103660726D01*
X111125389Y-103660834D01*
X111123599Y-103662599D01*
X110771072Y-104015126D01*
X110771072Y-102803000D01*
X110758812Y-102678518D01*
X110722502Y-102558820D01*
X110664336Y-102450000D01*
X110722502Y-102341180D01*
X110758812Y-102221482D01*
X110771072Y-102097000D01*
X110771072Y-99303000D01*
X110758812Y-99178518D01*
X110722502Y-99058820D01*
X110663537Y-98948506D01*
X110584185Y-98851815D01*
X110487494Y-98772463D01*
X110486021Y-98771676D01*
X110488192Y-98749630D01*
X110488192Y-97050370D01*
X110479149Y-96958551D01*
X110540000Y-96918731D01*
X110540000Y-95577000D01*
X109016000Y-95577000D01*
X109016000Y-95597000D01*
X108762000Y-95597000D01*
X108762000Y-95577000D01*
X108742000Y-95577000D01*
X108742000Y-95323000D01*
X108762000Y-95323000D01*
X108762000Y-95303000D01*
X109016000Y-95303000D01*
X109016000Y-95323000D01*
X109016000Y-95323000D01*
G37*
X109016000Y-95323000D02*
X110540000Y-95323000D01*
X110540000Y-95303000D01*
X110794000Y-95303000D01*
X110794000Y-95323000D01*
X110814000Y-95323000D01*
X110814000Y-95577000D01*
X110794000Y-95577000D01*
X110794000Y-96918731D01*
X110984609Y-97043462D01*
X111022282Y-97039591D01*
X111247533Y-96947421D01*
X111450474Y-96813078D01*
X111463456Y-96800207D01*
X111460258Y-96806190D01*
X111423948Y-96925888D01*
X111411688Y-97050370D01*
X111411688Y-98749630D01*
X111423948Y-98874112D01*
X111428117Y-98887857D01*
X111417763Y-98898211D01*
X111348270Y-99002215D01*
X111300403Y-99117777D01*
X111276000Y-99240458D01*
X111276000Y-100414250D01*
X111434750Y-100573000D01*
X112673000Y-100573000D01*
X112673000Y-100553000D01*
X112927000Y-100553000D01*
X112927000Y-100573000D01*
X112947000Y-100573000D01*
X112947000Y-100827000D01*
X112927000Y-100827000D01*
X112927000Y-100847000D01*
X112673000Y-100847000D01*
X112673000Y-100827000D01*
X111434750Y-100827000D01*
X111276000Y-100985750D01*
X111276000Y-102159542D01*
X111300403Y-102282223D01*
X111348270Y-102397785D01*
X111381399Y-102447366D01*
X111380463Y-102448506D01*
X111321498Y-102558820D01*
X111285188Y-102678518D01*
X111272928Y-102803000D01*
X111272928Y-103549209D01*
X111247074Y-103562611D01*
X111243953Y-103565103D01*
X111240422Y-103566980D01*
X111186007Y-103611359D01*
X111131154Y-103655148D01*
X111125594Y-103660631D01*
X111125478Y-103660726D01*
X111125389Y-103660834D01*
X111123599Y-103662599D01*
X110771072Y-104015126D01*
X110771072Y-102803000D01*
X110758812Y-102678518D01*
X110722502Y-102558820D01*
X110664336Y-102450000D01*
X110722502Y-102341180D01*
X110758812Y-102221482D01*
X110771072Y-102097000D01*
X110771072Y-99303000D01*
X110758812Y-99178518D01*
X110722502Y-99058820D01*
X110663537Y-98948506D01*
X110584185Y-98851815D01*
X110487494Y-98772463D01*
X110486021Y-98771676D01*
X110488192Y-98749630D01*
X110488192Y-97050370D01*
X110479149Y-96958551D01*
X110540000Y-96918731D01*
X110540000Y-95577000D01*
X109016000Y-95577000D01*
X109016000Y-95597000D01*
X108762000Y-95597000D01*
X108762000Y-95577000D01*
X108742000Y-95577000D01*
X108742000Y-95323000D01*
X108762000Y-95323000D01*
X108762000Y-95303000D01*
X109016000Y-95303000D01*
X109016000Y-95323000D01*
M02*
