G04 #@! TF.FileFunction,Legend,Bot*
%FSLAX46Y46*%
G04 Gerber Fmt 4.6, Leading zero omitted, Abs format (unit mm)*
G04 Created by KiCad (PCBNEW 4.1.0-alpha+201606051201+6884~45~ubuntu16.04.1-product) date Tue Jun  7 15:38:57 2016*
%MOMM*%
%LPD*%
G01*
G04 APERTURE LIST*
%ADD10C,0.100000*%
%ADD11C,0.150000*%
G04 APERTURE END LIST*
D10*
D11*
X104394000Y-112476000D02*
X104394000Y-115524000D01*
X100711000Y-115524000D02*
X98806000Y-115524000D01*
X98806000Y-115524000D02*
X98806000Y-112476000D01*
X98806000Y-112476000D02*
X100711000Y-112476000D01*
X102362000Y-112476000D02*
X104394000Y-112476000D01*
X104194000Y-112476000D02*
X104194000Y-115524000D01*
X104394000Y-115524000D02*
X102362000Y-115524000D01*
X113816000Y-102676000D02*
X113816000Y-105724000D01*
X110133000Y-105724000D02*
X108228000Y-105724000D01*
X108228000Y-105724000D02*
X108228000Y-102676000D01*
X108228000Y-102676000D02*
X110133000Y-102676000D01*
X111784000Y-102676000D02*
X113816000Y-102676000D01*
X113616000Y-102676000D02*
X113616000Y-105724000D01*
X113816000Y-105724000D02*
X111784000Y-105724000D01*
X113816000Y-99176000D02*
X113816000Y-102224000D01*
X110133000Y-102224000D02*
X108228000Y-102224000D01*
X108228000Y-102224000D02*
X108228000Y-99176000D01*
X108228000Y-99176000D02*
X110133000Y-99176000D01*
X111784000Y-99176000D02*
X113816000Y-99176000D01*
X113616000Y-99176000D02*
X113616000Y-102224000D01*
X113816000Y-102224000D02*
X111784000Y-102224000D01*
X112300000Y-112800000D02*
X111600000Y-112800000D01*
X111600000Y-114000000D02*
X112300000Y-114000000D01*
X107800000Y-108500000D02*
X108500000Y-108500000D01*
X108500000Y-107300000D02*
X107800000Y-107300000D01*
X113000000Y-115800000D02*
X113700000Y-115800000D01*
X113700000Y-114600000D02*
X113000000Y-114600000D01*
X102106000Y-100124000D02*
X102106000Y-97076000D01*
X105789000Y-97076000D02*
X107694000Y-97076000D01*
X107694000Y-97076000D02*
X107694000Y-100124000D01*
X107694000Y-100124000D02*
X105789000Y-100124000D01*
X104138000Y-100124000D02*
X102106000Y-100124000D01*
X102306000Y-100124000D02*
X102306000Y-97076000D01*
X102106000Y-97076000D02*
X104138000Y-97076000D01*
X113000000Y-117400000D02*
X113700000Y-117400000D01*
X113700000Y-116200000D02*
X113000000Y-116200000D01*
X111350180Y-97950800D02*
X110349420Y-97050000D01*
X110349420Y-97050000D02*
X110349420Y-98750000D01*
X110349420Y-98750000D02*
X111350180Y-97900000D01*
X111350180Y-97050000D02*
X111350180Y-98750000D01*
X124875000Y-106750000D02*
X124875000Y-98750000D01*
X123125000Y-106750000D02*
X123125000Y-98750000D01*
X123125000Y-106750000D02*
X119350000Y-106750000D01*
X123125000Y-98750000D02*
X119350000Y-98750000D01*
X119350000Y-106750000D02*
X119350000Y-109450000D01*
X119350000Y-98750000D02*
X119350000Y-96050000D01*
X119350000Y-109450000D02*
X122800000Y-109450000D01*
X119350000Y-96050000D02*
X122800000Y-96050000D01*
X122800000Y-109450000D02*
X122800000Y-106750000D01*
X122800000Y-96050000D02*
X122800000Y-98750000D01*
X122800000Y-106750000D02*
X124875000Y-106750000D01*
X122800000Y-98750000D02*
X124875000Y-98750000D01*
X91025000Y-98750000D02*
X91025000Y-106750000D01*
X92775000Y-98750000D02*
X92775000Y-106750000D01*
X92775000Y-98750000D02*
X96550000Y-98750000D01*
X92775000Y-106750000D02*
X96550000Y-106750000D01*
X96550000Y-98750000D02*
X96550000Y-96050000D01*
X96550000Y-106750000D02*
X96550000Y-109450000D01*
X96550000Y-96050000D02*
X93100000Y-96050000D01*
X96550000Y-109450000D02*
X93100000Y-109450000D01*
X93100000Y-96050000D02*
X93100000Y-98750000D01*
X93100000Y-109450000D02*
X93100000Y-106750000D01*
X93100000Y-98750000D02*
X91025000Y-98750000D01*
X93100000Y-106750000D02*
X91025000Y-106750000D01*
X111600000Y-108500000D02*
X112300000Y-108500000D01*
X112300000Y-107300000D02*
X111600000Y-107300000D01*
X115300000Y-112800000D02*
X114600000Y-112800000D01*
X114600000Y-114000000D02*
X115300000Y-114000000D01*
X114700000Y-108500000D02*
X115400000Y-108500000D01*
X115400000Y-107300000D02*
X114700000Y-107300000D01*
X105900000Y-114000000D02*
X106600000Y-114000000D01*
X106600000Y-112800000D02*
X105900000Y-112800000D01*
X100475000Y-107475000D02*
X100475000Y-107450000D01*
X105125000Y-107475000D02*
X105125000Y-107450000D01*
X105125000Y-100725000D02*
X105125000Y-100750000D01*
X100475000Y-100725000D02*
X100475000Y-100750000D01*
X100475000Y-107475000D02*
X105125000Y-107475000D01*
X100475000Y-100725000D02*
X105125000Y-100725000D01*
X100475000Y-107450000D02*
X99400000Y-107450000D01*
X102442857Y-117057142D02*
X102490476Y-117104761D01*
X102633333Y-117152380D01*
X102728571Y-117152380D01*
X102871428Y-117104761D01*
X102966666Y-117009523D01*
X103014285Y-116914285D01*
X103061904Y-116723809D01*
X103061904Y-116580952D01*
X103014285Y-116390476D01*
X102966666Y-116295238D01*
X102871428Y-116200000D01*
X102728571Y-116152380D01*
X102633333Y-116152380D01*
X102490476Y-116200000D01*
X102442857Y-116247619D01*
X101490476Y-117152380D02*
X102061904Y-117152380D01*
X101776190Y-117152380D02*
X101776190Y-116152380D01*
X101871428Y-116295238D01*
X101966666Y-116390476D01*
X102061904Y-116438095D01*
X100538095Y-117152380D02*
X101109523Y-117152380D01*
X100823809Y-117152380D02*
X100823809Y-116152380D01*
X100919047Y-116295238D01*
X101014285Y-116390476D01*
X101109523Y-116438095D01*
X115257142Y-103557142D02*
X115304761Y-103509523D01*
X115352380Y-103366666D01*
X115352380Y-103271428D01*
X115304761Y-103128571D01*
X115209523Y-103033333D01*
X115114285Y-102985714D01*
X114923809Y-102938095D01*
X114780952Y-102938095D01*
X114590476Y-102985714D01*
X114495238Y-103033333D01*
X114400000Y-103128571D01*
X114352380Y-103271428D01*
X114352380Y-103366666D01*
X114400000Y-103509523D01*
X114447619Y-103557142D01*
X115352380Y-104509523D02*
X115352380Y-103938095D01*
X115352380Y-104223809D02*
X114352380Y-104223809D01*
X114495238Y-104128571D01*
X114590476Y-104033333D01*
X114638095Y-103938095D01*
X114352380Y-104842857D02*
X114352380Y-105461904D01*
X114733333Y-105128571D01*
X114733333Y-105271428D01*
X114780952Y-105366666D01*
X114828571Y-105414285D01*
X114923809Y-105461904D01*
X115161904Y-105461904D01*
X115257142Y-105414285D01*
X115304761Y-105366666D01*
X115352380Y-105271428D01*
X115352380Y-104985714D01*
X115304761Y-104890476D01*
X115257142Y-104842857D01*
X115057142Y-100057142D02*
X115104761Y-100009523D01*
X115152380Y-99866666D01*
X115152380Y-99771428D01*
X115104761Y-99628571D01*
X115009523Y-99533333D01*
X114914285Y-99485714D01*
X114723809Y-99438095D01*
X114580952Y-99438095D01*
X114390476Y-99485714D01*
X114295238Y-99533333D01*
X114200000Y-99628571D01*
X114152380Y-99771428D01*
X114152380Y-99866666D01*
X114200000Y-100009523D01*
X114247619Y-100057142D01*
X115152380Y-101009523D02*
X115152380Y-100438095D01*
X115152380Y-100723809D02*
X114152380Y-100723809D01*
X114295238Y-100628571D01*
X114390476Y-100533333D01*
X114438095Y-100438095D01*
X114485714Y-101866666D02*
X115152380Y-101866666D01*
X114104761Y-101628571D02*
X114819047Y-101390476D01*
X114819047Y-102009523D01*
X109742857Y-113857142D02*
X109790476Y-113904761D01*
X109933333Y-113952380D01*
X110028571Y-113952380D01*
X110171428Y-113904761D01*
X110266666Y-113809523D01*
X110314285Y-113714285D01*
X110361904Y-113523809D01*
X110361904Y-113380952D01*
X110314285Y-113190476D01*
X110266666Y-113095238D01*
X110171428Y-113000000D01*
X110028571Y-112952380D01*
X109933333Y-112952380D01*
X109790476Y-113000000D01*
X109742857Y-113047619D01*
X108790476Y-113952380D02*
X109361904Y-113952380D01*
X109076190Y-113952380D02*
X109076190Y-112952380D01*
X109171428Y-113095238D01*
X109266666Y-113190476D01*
X109361904Y-113238095D01*
X107885714Y-112952380D02*
X108361904Y-112952380D01*
X108409523Y-113428571D01*
X108361904Y-113380952D01*
X108266666Y-113333333D01*
X108028571Y-113333333D01*
X107933333Y-113380952D01*
X107885714Y-113428571D01*
X107838095Y-113523809D01*
X107838095Y-113761904D01*
X107885714Y-113857142D01*
X107933333Y-113904761D01*
X108028571Y-113952380D01*
X108266666Y-113952380D01*
X108361904Y-113904761D01*
X108409523Y-113857142D01*
X108842857Y-106957142D02*
X108890476Y-107004761D01*
X109033333Y-107052380D01*
X109128571Y-107052380D01*
X109271428Y-107004761D01*
X109366666Y-106909523D01*
X109414285Y-106814285D01*
X109461904Y-106623809D01*
X109461904Y-106480952D01*
X109414285Y-106290476D01*
X109366666Y-106195238D01*
X109271428Y-106100000D01*
X109128571Y-106052380D01*
X109033333Y-106052380D01*
X108890476Y-106100000D01*
X108842857Y-106147619D01*
X107890476Y-107052380D02*
X108461904Y-107052380D01*
X108176190Y-107052380D02*
X108176190Y-106052380D01*
X108271428Y-106195238D01*
X108366666Y-106290476D01*
X108461904Y-106338095D01*
X107033333Y-106052380D02*
X107223809Y-106052380D01*
X107319047Y-106100000D01*
X107366666Y-106147619D01*
X107461904Y-106290476D01*
X107509523Y-106480952D01*
X107509523Y-106861904D01*
X107461904Y-106957142D01*
X107414285Y-107004761D01*
X107319047Y-107052380D01*
X107128571Y-107052380D01*
X107033333Y-107004761D01*
X106985714Y-106957142D01*
X106938095Y-106861904D01*
X106938095Y-106623809D01*
X106985714Y-106528571D01*
X107033333Y-106480952D01*
X107128571Y-106433333D01*
X107319047Y-106433333D01*
X107414285Y-106480952D01*
X107461904Y-106528571D01*
X107509523Y-106623809D01*
X117142857Y-115657142D02*
X117190476Y-115704761D01*
X117333333Y-115752380D01*
X117428571Y-115752380D01*
X117571428Y-115704761D01*
X117666666Y-115609523D01*
X117714285Y-115514285D01*
X117761904Y-115323809D01*
X117761904Y-115180952D01*
X117714285Y-114990476D01*
X117666666Y-114895238D01*
X117571428Y-114800000D01*
X117428571Y-114752380D01*
X117333333Y-114752380D01*
X117190476Y-114800000D01*
X117142857Y-114847619D01*
X116190476Y-115752380D02*
X116761904Y-115752380D01*
X116476190Y-115752380D02*
X116476190Y-114752380D01*
X116571428Y-114895238D01*
X116666666Y-114990476D01*
X116761904Y-115038095D01*
X115857142Y-114752380D02*
X115190476Y-114752380D01*
X115619047Y-115752380D01*
X101142857Y-99057142D02*
X101190476Y-99104761D01*
X101333333Y-99152380D01*
X101428571Y-99152380D01*
X101571428Y-99104761D01*
X101666666Y-99009523D01*
X101714285Y-98914285D01*
X101761904Y-98723809D01*
X101761904Y-98580952D01*
X101714285Y-98390476D01*
X101666666Y-98295238D01*
X101571428Y-98200000D01*
X101428571Y-98152380D01*
X101333333Y-98152380D01*
X101190476Y-98200000D01*
X101142857Y-98247619D01*
X100190476Y-99152380D02*
X100761904Y-99152380D01*
X100476190Y-99152380D02*
X100476190Y-98152380D01*
X100571428Y-98295238D01*
X100666666Y-98390476D01*
X100761904Y-98438095D01*
X99619047Y-98580952D02*
X99714285Y-98533333D01*
X99761904Y-98485714D01*
X99809523Y-98390476D01*
X99809523Y-98342857D01*
X99761904Y-98247619D01*
X99714285Y-98200000D01*
X99619047Y-98152380D01*
X99428571Y-98152380D01*
X99333333Y-98200000D01*
X99285714Y-98247619D01*
X99238095Y-98342857D01*
X99238095Y-98390476D01*
X99285714Y-98485714D01*
X99333333Y-98533333D01*
X99428571Y-98580952D01*
X99619047Y-98580952D01*
X99714285Y-98628571D01*
X99761904Y-98676190D01*
X99809523Y-98771428D01*
X99809523Y-98961904D01*
X99761904Y-99057142D01*
X99714285Y-99104761D01*
X99619047Y-99152380D01*
X99428571Y-99152380D01*
X99333333Y-99104761D01*
X99285714Y-99057142D01*
X99238095Y-98961904D01*
X99238095Y-98771428D01*
X99285714Y-98676190D01*
X99333333Y-98628571D01*
X99428571Y-98580952D01*
X117142857Y-117257142D02*
X117190476Y-117304761D01*
X117333333Y-117352380D01*
X117428571Y-117352380D01*
X117571428Y-117304761D01*
X117666666Y-117209523D01*
X117714285Y-117114285D01*
X117761904Y-116923809D01*
X117761904Y-116780952D01*
X117714285Y-116590476D01*
X117666666Y-116495238D01*
X117571428Y-116400000D01*
X117428571Y-116352380D01*
X117333333Y-116352380D01*
X117190476Y-116400000D01*
X117142857Y-116447619D01*
X116190476Y-117352380D02*
X116761904Y-117352380D01*
X116476190Y-117352380D02*
X116476190Y-116352380D01*
X116571428Y-116495238D01*
X116666666Y-116590476D01*
X116761904Y-116638095D01*
X115714285Y-117352380D02*
X115523809Y-117352380D01*
X115428571Y-117304761D01*
X115380952Y-117257142D01*
X115285714Y-117114285D01*
X115238095Y-116923809D01*
X115238095Y-116542857D01*
X115285714Y-116447619D01*
X115333333Y-116400000D01*
X115428571Y-116352380D01*
X115619047Y-116352380D01*
X115714285Y-116400000D01*
X115761904Y-116447619D01*
X115809523Y-116542857D01*
X115809523Y-116780952D01*
X115761904Y-116876190D01*
X115714285Y-116923809D01*
X115619047Y-116971428D01*
X115428571Y-116971428D01*
X115333333Y-116923809D01*
X115285714Y-116876190D01*
X115238095Y-116780952D01*
X115338095Y-98452380D02*
X115338095Y-97452380D01*
X115100000Y-97452380D01*
X114957142Y-97500000D01*
X114861904Y-97595238D01*
X114814285Y-97690476D01*
X114766666Y-97880952D01*
X114766666Y-98023809D01*
X114814285Y-98214285D01*
X114861904Y-98309523D01*
X114957142Y-98404761D01*
X115100000Y-98452380D01*
X115338095Y-98452380D01*
X113814285Y-98452380D02*
X114385714Y-98452380D01*
X114100000Y-98452380D02*
X114100000Y-97452380D01*
X114195238Y-97595238D01*
X114290476Y-97690476D01*
X114385714Y-97738095D01*
X113011844Y-100302380D02*
X113011844Y-99302380D01*
X112440416Y-100302380D02*
X112868987Y-99730952D01*
X112440416Y-99302380D02*
X113011844Y-99873809D01*
X109388035Y-100016666D02*
X108911844Y-100016666D01*
X109483273Y-100302380D02*
X109149940Y-99302380D01*
X108816606Y-100302380D01*
X121652380Y-101961904D02*
X120652380Y-101961904D01*
X120652380Y-102342857D01*
X120700000Y-102438095D01*
X120747619Y-102485714D01*
X120842857Y-102533333D01*
X120985714Y-102533333D01*
X121080952Y-102485714D01*
X121128571Y-102438095D01*
X121176190Y-102342857D01*
X121176190Y-101961904D01*
X121652380Y-103485714D02*
X121652380Y-102914285D01*
X121652380Y-103200000D02*
X120652380Y-103200000D01*
X120795238Y-103104761D01*
X120890476Y-103009523D01*
X120938095Y-102914285D01*
X95052380Y-102011904D02*
X94052380Y-102011904D01*
X94052380Y-102392857D01*
X94100000Y-102488095D01*
X94147619Y-102535714D01*
X94242857Y-102583333D01*
X94385714Y-102583333D01*
X94480952Y-102535714D01*
X94528571Y-102488095D01*
X94576190Y-102392857D01*
X94576190Y-102011904D01*
X94147619Y-102964285D02*
X94100000Y-103011904D01*
X94052380Y-103107142D01*
X94052380Y-103345238D01*
X94100000Y-103440476D01*
X94147619Y-103488095D01*
X94242857Y-103535714D01*
X94338095Y-103535714D01*
X94480952Y-103488095D01*
X95052380Y-102916666D01*
X95052380Y-103535714D01*
X112066666Y-106952380D02*
X112400000Y-106476190D01*
X112638095Y-106952380D02*
X112638095Y-105952380D01*
X112257142Y-105952380D01*
X112161904Y-106000000D01*
X112114285Y-106047619D01*
X112066666Y-106142857D01*
X112066666Y-106285714D01*
X112114285Y-106380952D01*
X112161904Y-106428571D01*
X112257142Y-106476190D01*
X112638095Y-106476190D01*
X111114285Y-106952380D02*
X111685714Y-106952380D01*
X111400000Y-106952380D02*
X111400000Y-105952380D01*
X111495238Y-106095238D01*
X111590476Y-106190476D01*
X111685714Y-106238095D01*
X117766666Y-113852380D02*
X118100000Y-113376190D01*
X118338095Y-113852380D02*
X118338095Y-112852380D01*
X117957142Y-112852380D01*
X117861904Y-112900000D01*
X117814285Y-112947619D01*
X117766666Y-113042857D01*
X117766666Y-113185714D01*
X117814285Y-113280952D01*
X117861904Y-113328571D01*
X117957142Y-113376190D01*
X118338095Y-113376190D01*
X117385714Y-112947619D02*
X117338095Y-112900000D01*
X117242857Y-112852380D01*
X117004761Y-112852380D01*
X116909523Y-112900000D01*
X116861904Y-112947619D01*
X116814285Y-113042857D01*
X116814285Y-113138095D01*
X116861904Y-113280952D01*
X117433333Y-113852380D01*
X116814285Y-113852380D01*
X115166666Y-106852380D02*
X115500000Y-106376190D01*
X115738095Y-106852380D02*
X115738095Y-105852380D01*
X115357142Y-105852380D01*
X115261904Y-105900000D01*
X115214285Y-105947619D01*
X115166666Y-106042857D01*
X115166666Y-106185714D01*
X115214285Y-106280952D01*
X115261904Y-106328571D01*
X115357142Y-106376190D01*
X115738095Y-106376190D01*
X114833333Y-105852380D02*
X114214285Y-105852380D01*
X114547619Y-106233333D01*
X114404761Y-106233333D01*
X114309523Y-106280952D01*
X114261904Y-106328571D01*
X114214285Y-106423809D01*
X114214285Y-106661904D01*
X114261904Y-106757142D01*
X114309523Y-106804761D01*
X114404761Y-106852380D01*
X114690476Y-106852380D01*
X114785714Y-106804761D01*
X114833333Y-106757142D01*
X106416666Y-115752380D02*
X106750000Y-115276190D01*
X106988095Y-115752380D02*
X106988095Y-114752380D01*
X106607142Y-114752380D01*
X106511904Y-114800000D01*
X106464285Y-114847619D01*
X106416666Y-114942857D01*
X106416666Y-115085714D01*
X106464285Y-115180952D01*
X106511904Y-115228571D01*
X106607142Y-115276190D01*
X106988095Y-115276190D01*
X105559523Y-115085714D02*
X105559523Y-115752380D01*
X105797619Y-114704761D02*
X106035714Y-115419047D01*
X105416666Y-115419047D01*
X103561904Y-107852380D02*
X103561904Y-108661904D01*
X103514285Y-108757142D01*
X103466666Y-108804761D01*
X103371428Y-108852380D01*
X103180952Y-108852380D01*
X103085714Y-108804761D01*
X103038095Y-108757142D01*
X102990476Y-108661904D01*
X102990476Y-107852380D01*
X102561904Y-107947619D02*
X102514285Y-107900000D01*
X102419047Y-107852380D01*
X102180952Y-107852380D01*
X102085714Y-107900000D01*
X102038095Y-107947619D01*
X101990476Y-108042857D01*
X101990476Y-108138095D01*
X102038095Y-108280952D01*
X102609523Y-108852380D01*
X101990476Y-108852380D01*
M02*
