G04 #@! TF.FileFunction,Paste,Bot*
%FSLAX46Y46*%
G04 Gerber Fmt 4.6, Leading zero omitted, Abs format (unit mm)*
G04 Created by KiCad (PCBNEW 4.1.0-alpha+201606051201+6884~45~ubuntu16.04.1-product) date Tue Jun  7 15:38:57 2016*
%MOMM*%
%LPD*%
G01*
G04 APERTURE LIST*
%ADD10C,0.100000*%
%ADD11R,1.778000X2.794000*%
%ADD12R,0.800000X0.750000*%
%ADD13R,1.300480X1.699260*%
%ADD14R,1.300000X0.300000*%
%ADD15R,3.000000X2.000000*%
%ADD16R,1.000000X0.400000*%
G04 APERTURE END LIST*
D10*
D11*
X103378000Y-114000000D03*
X99822000Y-114000000D03*
X112800000Y-104200000D03*
X109244000Y-104200000D03*
X112800000Y-100700000D03*
X109244000Y-100700000D03*
D12*
X112700000Y-113400000D03*
X111200000Y-113400000D03*
X107400000Y-107900000D03*
X108900000Y-107900000D03*
X112600000Y-115200000D03*
X114100000Y-115200000D03*
D11*
X103122000Y-98600000D03*
X106678000Y-98600000D03*
D12*
X112600000Y-116800000D03*
X114100000Y-116800000D03*
D13*
X112700000Y-97900000D03*
X109199880Y-97900000D03*
D14*
X124000000Y-106500000D03*
X124000000Y-106000000D03*
X124000000Y-105500000D03*
X124000000Y-105000000D03*
X124000000Y-104500000D03*
X124000000Y-104000000D03*
X124000000Y-103500000D03*
X124000000Y-103000000D03*
X124000000Y-102500000D03*
X124000000Y-102000000D03*
X124000000Y-101500000D03*
X124000000Y-101000000D03*
X124000000Y-100500000D03*
X124000000Y-100000000D03*
X124000000Y-99500000D03*
X124000000Y-99000000D03*
D15*
X121000000Y-108000000D03*
X121000000Y-97500000D03*
D14*
X91900000Y-99000000D03*
X91900000Y-99500000D03*
X91900000Y-100000000D03*
X91900000Y-100500000D03*
X91900000Y-101000000D03*
X91900000Y-101500000D03*
X91900000Y-102000000D03*
X91900000Y-102500000D03*
X91900000Y-103000000D03*
X91900000Y-103500000D03*
X91900000Y-104000000D03*
X91900000Y-104500000D03*
X91900000Y-105000000D03*
X91900000Y-105500000D03*
X91900000Y-106000000D03*
X91900000Y-106500000D03*
D15*
X94900000Y-97500000D03*
X94900000Y-108000000D03*
D12*
X111200000Y-107900000D03*
X112700000Y-107900000D03*
X115700000Y-113400000D03*
X114200000Y-113400000D03*
X114300000Y-107900000D03*
X115800000Y-107900000D03*
X105500000Y-113400000D03*
X107000000Y-113400000D03*
D16*
X99900000Y-107025000D03*
X99900000Y-106375000D03*
X99900000Y-105725000D03*
X99900000Y-105075000D03*
X99900000Y-104425000D03*
X99900000Y-103775000D03*
X99900000Y-103125000D03*
X99900000Y-102475000D03*
X99900000Y-101825000D03*
X99900000Y-101175000D03*
X105700000Y-101175000D03*
X105700000Y-101825000D03*
X105700000Y-102475000D03*
X105700000Y-103125000D03*
X105700000Y-103775000D03*
X105700000Y-104425000D03*
X105700000Y-105075000D03*
X105700000Y-105725000D03*
X105700000Y-106375000D03*
X105700000Y-107025000D03*
M02*
