G04 #@! TF.FileFunction,Legend,Top*
%FSLAX46Y46*%
G04 Gerber Fmt 4.6, Leading zero omitted, Abs format (unit mm)*
G04 Created by KiCad (PCBNEW 4.1.0-alpha+201606051201+6884~45~ubuntu16.04.1-product) date Tue Jun  7 15:38:57 2016*
%MOMM*%
%LPD*%
G01*
G04 APERTURE LIST*
%ADD10C,0.100000*%
%ADD11C,0.150000*%
G04 APERTURE END LIST*
D10*
D11*
X117600000Y-95850000D02*
X117600000Y-95150000D01*
X118800000Y-95150000D02*
X118800000Y-95850000D01*
X119350000Y-110000000D02*
X118650000Y-110000000D01*
X118650000Y-108800000D02*
X119350000Y-108800000D01*
X113550000Y-108600000D02*
X112850000Y-108600000D01*
X112850000Y-107400000D02*
X113550000Y-107400000D01*
X111300000Y-97300000D02*
X112000000Y-97300000D01*
X112000000Y-98500000D02*
X111300000Y-98500000D01*
X113650000Y-104800000D02*
X112950000Y-104800000D01*
X112950000Y-103600000D02*
X113650000Y-103600000D01*
X111900000Y-100550000D02*
X111900000Y-99850000D01*
X113100000Y-99850000D02*
X113100000Y-100550000D01*
X110200000Y-100600000D02*
X110200000Y-99900000D01*
X111400000Y-99900000D02*
X111400000Y-100600000D01*
X110100000Y-105100000D02*
X110100000Y-104400000D01*
X111300000Y-104400000D02*
X111300000Y-105100000D01*
X113650000Y-103100000D02*
X112950000Y-103100000D01*
X112950000Y-101900000D02*
X113650000Y-101900000D01*
X109600000Y-99900000D02*
X109600000Y-100600000D01*
X108400000Y-100600000D02*
X108400000Y-99900000D01*
X108400000Y-105100000D02*
X108400000Y-104400000D01*
X109600000Y-104400000D02*
X109600000Y-105100000D01*
X119950240Y-113499160D02*
X119950240Y-113450900D01*
X119249200Y-110700180D02*
X119950240Y-110700180D01*
X119950240Y-110700180D02*
X119950240Y-110949100D01*
X119950240Y-113499160D02*
X119950240Y-113699820D01*
X119950240Y-113699820D02*
X119249200Y-113699820D01*
X122975000Y-108125000D02*
X122975000Y-107475000D01*
X117225000Y-108125000D02*
X117225000Y-107475000D01*
X117225000Y-97475000D02*
X117225000Y-98125000D01*
X122975000Y-97475000D02*
X122975000Y-98125000D01*
X122975000Y-108125000D02*
X117225000Y-108125000D01*
X122975000Y-97475000D02*
X117225000Y-97475000D01*
X122975000Y-107475000D02*
X124575000Y-107475000D01*
X98899000Y-112050000D02*
X117101000Y-112050000D01*
X117101000Y-112050000D02*
X117101000Y-93950000D01*
X117101000Y-93950000D02*
X98899000Y-93950000D01*
X98899000Y-93950000D02*
X98899000Y-99983334D01*
X98899000Y-99983334D02*
X99349000Y-99983334D01*
X99349000Y-99983334D02*
X99349000Y-106016666D01*
X99349000Y-106016666D02*
X98899000Y-106016666D01*
X98899000Y-106016666D02*
X98899000Y-112050000D01*
X120257142Y-95566666D02*
X120304761Y-95614285D01*
X120352380Y-95757142D01*
X120352380Y-95852380D01*
X120304761Y-95995238D01*
X120209523Y-96090476D01*
X120114285Y-96138095D01*
X119923809Y-96185714D01*
X119780952Y-96185714D01*
X119590476Y-96138095D01*
X119495238Y-96090476D01*
X119400000Y-95995238D01*
X119352380Y-95852380D01*
X119352380Y-95757142D01*
X119400000Y-95614285D01*
X119447619Y-95566666D01*
X120352380Y-94614285D02*
X120352380Y-95185714D01*
X120352380Y-94900000D02*
X119352380Y-94900000D01*
X119495238Y-94995238D01*
X119590476Y-95090476D01*
X119638095Y-95185714D01*
X121633333Y-109857142D02*
X121585714Y-109904761D01*
X121442857Y-109952380D01*
X121347619Y-109952380D01*
X121204761Y-109904761D01*
X121109523Y-109809523D01*
X121061904Y-109714285D01*
X121014285Y-109523809D01*
X121014285Y-109380952D01*
X121061904Y-109190476D01*
X121109523Y-109095238D01*
X121204761Y-109000000D01*
X121347619Y-108952380D01*
X121442857Y-108952380D01*
X121585714Y-109000000D01*
X121633333Y-109047619D01*
X122014285Y-109047619D02*
X122061904Y-109000000D01*
X122157142Y-108952380D01*
X122395238Y-108952380D01*
X122490476Y-109000000D01*
X122538095Y-109047619D01*
X122585714Y-109142857D01*
X122585714Y-109238095D01*
X122538095Y-109380952D01*
X121966666Y-109952380D01*
X122585714Y-109952380D01*
X110233333Y-108357142D02*
X110185714Y-108404761D01*
X110042857Y-108452380D01*
X109947619Y-108452380D01*
X109804761Y-108404761D01*
X109709523Y-108309523D01*
X109661904Y-108214285D01*
X109614285Y-108023809D01*
X109614285Y-107880952D01*
X109661904Y-107690476D01*
X109709523Y-107595238D01*
X109804761Y-107500000D01*
X109947619Y-107452380D01*
X110042857Y-107452380D01*
X110185714Y-107500000D01*
X110233333Y-107547619D01*
X110566666Y-107452380D02*
X111185714Y-107452380D01*
X110852380Y-107833333D01*
X110995238Y-107833333D01*
X111090476Y-107880952D01*
X111138095Y-107928571D01*
X111185714Y-108023809D01*
X111185714Y-108261904D01*
X111138095Y-108357142D01*
X111090476Y-108404761D01*
X110995238Y-108452380D01*
X110709523Y-108452380D01*
X110614285Y-108404761D01*
X110566666Y-108357142D01*
X108833333Y-98157142D02*
X108785714Y-98204761D01*
X108642857Y-98252380D01*
X108547619Y-98252380D01*
X108404761Y-98204761D01*
X108309523Y-98109523D01*
X108261904Y-98014285D01*
X108214285Y-97823809D01*
X108214285Y-97680952D01*
X108261904Y-97490476D01*
X108309523Y-97395238D01*
X108404761Y-97300000D01*
X108547619Y-97252380D01*
X108642857Y-97252380D01*
X108785714Y-97300000D01*
X108833333Y-97347619D01*
X109690476Y-97585714D02*
X109690476Y-98252380D01*
X109452380Y-97204761D02*
X109214285Y-97919047D01*
X109833333Y-97919047D01*
X113133333Y-106357142D02*
X113085714Y-106404761D01*
X112942857Y-106452380D01*
X112847619Y-106452380D01*
X112704761Y-106404761D01*
X112609523Y-106309523D01*
X112561904Y-106214285D01*
X112514285Y-106023809D01*
X112514285Y-105880952D01*
X112561904Y-105690476D01*
X112609523Y-105595238D01*
X112704761Y-105500000D01*
X112847619Y-105452380D01*
X112942857Y-105452380D01*
X113085714Y-105500000D01*
X113133333Y-105547619D01*
X114038095Y-105452380D02*
X113561904Y-105452380D01*
X113514285Y-105928571D01*
X113561904Y-105880952D01*
X113657142Y-105833333D01*
X113895238Y-105833333D01*
X113990476Y-105880952D01*
X114038095Y-105928571D01*
X114085714Y-106023809D01*
X114085714Y-106261904D01*
X114038095Y-106357142D01*
X113990476Y-106404761D01*
X113895238Y-106452380D01*
X113657142Y-106452380D01*
X113561904Y-106404761D01*
X113514285Y-106357142D01*
X107657142Y-100366666D02*
X107704761Y-100414285D01*
X107752380Y-100557142D01*
X107752380Y-100652380D01*
X107704761Y-100795238D01*
X107609523Y-100890476D01*
X107514285Y-100938095D01*
X107323809Y-100985714D01*
X107180952Y-100985714D01*
X106990476Y-100938095D01*
X106895238Y-100890476D01*
X106800000Y-100795238D01*
X106752380Y-100652380D01*
X106752380Y-100557142D01*
X106800000Y-100414285D01*
X106847619Y-100366666D01*
X106752380Y-99509523D02*
X106752380Y-99700000D01*
X106800000Y-99795238D01*
X106847619Y-99842857D01*
X106990476Y-99938095D01*
X107180952Y-99985714D01*
X107561904Y-99985714D01*
X107657142Y-99938095D01*
X107704761Y-99890476D01*
X107752380Y-99795238D01*
X107752380Y-99604761D01*
X107704761Y-99509523D01*
X107657142Y-99461904D01*
X107561904Y-99414285D01*
X107323809Y-99414285D01*
X107228571Y-99461904D01*
X107180952Y-99509523D01*
X107133333Y-99604761D01*
X107133333Y-99795238D01*
X107180952Y-99890476D01*
X107228571Y-99938095D01*
X107323809Y-99985714D01*
X106257142Y-100366666D02*
X106304761Y-100414285D01*
X106352380Y-100557142D01*
X106352380Y-100652380D01*
X106304761Y-100795238D01*
X106209523Y-100890476D01*
X106114285Y-100938095D01*
X105923809Y-100985714D01*
X105780952Y-100985714D01*
X105590476Y-100938095D01*
X105495238Y-100890476D01*
X105400000Y-100795238D01*
X105352380Y-100652380D01*
X105352380Y-100557142D01*
X105400000Y-100414285D01*
X105447619Y-100366666D01*
X105352380Y-100033333D02*
X105352380Y-99366666D01*
X106352380Y-99795238D01*
X107457142Y-105066666D02*
X107504761Y-105114285D01*
X107552380Y-105257142D01*
X107552380Y-105352380D01*
X107504761Y-105495238D01*
X107409523Y-105590476D01*
X107314285Y-105638095D01*
X107123809Y-105685714D01*
X106980952Y-105685714D01*
X106790476Y-105638095D01*
X106695238Y-105590476D01*
X106600000Y-105495238D01*
X106552380Y-105352380D01*
X106552380Y-105257142D01*
X106600000Y-105114285D01*
X106647619Y-105066666D01*
X106980952Y-104495238D02*
X106933333Y-104590476D01*
X106885714Y-104638095D01*
X106790476Y-104685714D01*
X106742857Y-104685714D01*
X106647619Y-104638095D01*
X106600000Y-104590476D01*
X106552380Y-104495238D01*
X106552380Y-104304761D01*
X106600000Y-104209523D01*
X106647619Y-104161904D01*
X106742857Y-104114285D01*
X106790476Y-104114285D01*
X106885714Y-104161904D01*
X106933333Y-104209523D01*
X106980952Y-104304761D01*
X106980952Y-104495238D01*
X107028571Y-104590476D01*
X107076190Y-104638095D01*
X107171428Y-104685714D01*
X107361904Y-104685714D01*
X107457142Y-104638095D01*
X107504761Y-104590476D01*
X107552380Y-104495238D01*
X107552380Y-104304761D01*
X107504761Y-104209523D01*
X107457142Y-104161904D01*
X107361904Y-104114285D01*
X107171428Y-104114285D01*
X107076190Y-104161904D01*
X107028571Y-104209523D01*
X106980952Y-104304761D01*
X110133333Y-102857142D02*
X110085714Y-102904761D01*
X109942857Y-102952380D01*
X109847619Y-102952380D01*
X109704761Y-102904761D01*
X109609523Y-102809523D01*
X109561904Y-102714285D01*
X109514285Y-102523809D01*
X109514285Y-102380952D01*
X109561904Y-102190476D01*
X109609523Y-102095238D01*
X109704761Y-102000000D01*
X109847619Y-101952380D01*
X109942857Y-101952380D01*
X110085714Y-102000000D01*
X110133333Y-102047619D01*
X110609523Y-102952380D02*
X110800000Y-102952380D01*
X110895238Y-102904761D01*
X110942857Y-102857142D01*
X111038095Y-102714285D01*
X111085714Y-102523809D01*
X111085714Y-102142857D01*
X111038095Y-102047619D01*
X110990476Y-102000000D01*
X110895238Y-101952380D01*
X110704761Y-101952380D01*
X110609523Y-102000000D01*
X110561904Y-102047619D01*
X110514285Y-102142857D01*
X110514285Y-102380952D01*
X110561904Y-102476190D01*
X110609523Y-102523809D01*
X110704761Y-102571428D01*
X110895238Y-102571428D01*
X110990476Y-102523809D01*
X111038095Y-102476190D01*
X111085714Y-102380952D01*
X104757142Y-100842857D02*
X104804761Y-100890476D01*
X104852380Y-101033333D01*
X104852380Y-101128571D01*
X104804761Y-101271428D01*
X104709523Y-101366666D01*
X104614285Y-101414285D01*
X104423809Y-101461904D01*
X104280952Y-101461904D01*
X104090476Y-101414285D01*
X103995238Y-101366666D01*
X103900000Y-101271428D01*
X103852380Y-101128571D01*
X103852380Y-101033333D01*
X103900000Y-100890476D01*
X103947619Y-100842857D01*
X104852380Y-99890476D02*
X104852380Y-100461904D01*
X104852380Y-100176190D02*
X103852380Y-100176190D01*
X103995238Y-100271428D01*
X104090476Y-100366666D01*
X104138095Y-100461904D01*
X103852380Y-99271428D02*
X103852380Y-99176190D01*
X103900000Y-99080952D01*
X103947619Y-99033333D01*
X104042857Y-98985714D01*
X104233333Y-98938095D01*
X104471428Y-98938095D01*
X104661904Y-98985714D01*
X104757142Y-99033333D01*
X104804761Y-99080952D01*
X104852380Y-99176190D01*
X104852380Y-99271428D01*
X104804761Y-99366666D01*
X104757142Y-99414285D01*
X104661904Y-99461904D01*
X104471428Y-99509523D01*
X104233333Y-99509523D01*
X104042857Y-99461904D01*
X103947619Y-99414285D01*
X103900000Y-99366666D01*
X103852380Y-99271428D01*
X105857142Y-105392857D02*
X105904761Y-105440476D01*
X105952380Y-105583333D01*
X105952380Y-105678571D01*
X105904761Y-105821428D01*
X105809523Y-105916666D01*
X105714285Y-105964285D01*
X105523809Y-106011904D01*
X105380952Y-106011904D01*
X105190476Y-105964285D01*
X105095238Y-105916666D01*
X105000000Y-105821428D01*
X104952380Y-105678571D01*
X104952380Y-105583333D01*
X105000000Y-105440476D01*
X105047619Y-105392857D01*
X105952380Y-104440476D02*
X105952380Y-105011904D01*
X105952380Y-104726190D02*
X104952380Y-104726190D01*
X105095238Y-104821428D01*
X105190476Y-104916666D01*
X105238095Y-105011904D01*
X105047619Y-104059523D02*
X105000000Y-104011904D01*
X104952380Y-103916666D01*
X104952380Y-103678571D01*
X105000000Y-103583333D01*
X105047619Y-103535714D01*
X105142857Y-103488095D01*
X105238095Y-103488095D01*
X105380952Y-103535714D01*
X105952380Y-104107142D01*
X105952380Y-103488095D01*
X119104761Y-115347619D02*
X119009523Y-115300000D01*
X118914285Y-115204761D01*
X118771428Y-115061904D01*
X118676190Y-115014285D01*
X118580952Y-115014285D01*
X118628571Y-115252380D02*
X118533333Y-115204761D01*
X118438095Y-115109523D01*
X118390476Y-114919047D01*
X118390476Y-114585714D01*
X118438095Y-114395238D01*
X118533333Y-114300000D01*
X118628571Y-114252380D01*
X118819047Y-114252380D01*
X118914285Y-114300000D01*
X119009523Y-114395238D01*
X119057142Y-114585714D01*
X119057142Y-114919047D01*
X119009523Y-115109523D01*
X118914285Y-115204761D01*
X118819047Y-115252380D01*
X118628571Y-115252380D01*
X120009523Y-115252380D02*
X119438095Y-115252380D01*
X119723809Y-115252380D02*
X119723809Y-114252380D01*
X119628571Y-114395238D01*
X119533333Y-114490476D01*
X119438095Y-114538095D01*
X119538095Y-102152380D02*
X119538095Y-102961904D01*
X119585714Y-103057142D01*
X119633333Y-103104761D01*
X119728571Y-103152380D01*
X119919047Y-103152380D01*
X120014285Y-103104761D01*
X120061904Y-103057142D01*
X120109523Y-102961904D01*
X120109523Y-102152380D01*
X121109523Y-103152380D02*
X120538095Y-103152380D01*
X120823809Y-103152380D02*
X120823809Y-102152380D01*
X120728571Y-102295238D01*
X120633333Y-102390476D01*
X120538095Y-102438095D01*
X102152380Y-104961904D02*
X102961904Y-104961904D01*
X103057142Y-104914285D01*
X103104761Y-104866666D01*
X103152380Y-104771428D01*
X103152380Y-104580952D01*
X103104761Y-104485714D01*
X103057142Y-104438095D01*
X102961904Y-104390476D01*
X102152380Y-104390476D01*
X102152380Y-104009523D02*
X102152380Y-103390476D01*
X102533333Y-103723809D01*
X102533333Y-103580952D01*
X102580952Y-103485714D01*
X102628571Y-103438095D01*
X102723809Y-103390476D01*
X102961904Y-103390476D01*
X103057142Y-103438095D01*
X103104761Y-103485714D01*
X103152380Y-103580952D01*
X103152380Y-103866666D01*
X103104761Y-103961904D01*
X103057142Y-104009523D01*
M02*
