G04 #@! TF.FileFunction,Paste,Top*
%FSLAX46Y46*%
G04 Gerber Fmt 4.6, Leading zero omitted, Abs format (unit mm)*
G04 Created by KiCad (PCBNEW 4.1.0-alpha+201606051201+6884~45~ubuntu16.04.1-product) date Tue Jun  7 15:38:57 2016*
%MOMM*%
%LPD*%
G01*
G04 APERTURE LIST*
%ADD10C,0.100000*%
%ADD11R,0.750000X0.800000*%
%ADD12R,0.800000X0.750000*%
%ADD13R,0.800100X0.800100*%
%ADD14R,1.750000X0.450000*%
G04 APERTURE END LIST*
D10*
D11*
X118200000Y-96250000D03*
X118200000Y-94750000D03*
D12*
X119750000Y-109400000D03*
X118250000Y-109400000D03*
X113950000Y-108000000D03*
X112450000Y-108000000D03*
X110900000Y-97900000D03*
X112400000Y-97900000D03*
X114050000Y-104200000D03*
X112550000Y-104200000D03*
D11*
X112500000Y-100950000D03*
X112500000Y-99450000D03*
X110800000Y-101000000D03*
X110800000Y-99500000D03*
X110700000Y-105500000D03*
X110700000Y-104000000D03*
D12*
X114050000Y-102500000D03*
X112550000Y-102500000D03*
D11*
X109000000Y-99500000D03*
X109000000Y-101000000D03*
X109000000Y-105500000D03*
X109000000Y-104000000D03*
D13*
X118299240Y-111250000D03*
X118299240Y-113150000D03*
X120298220Y-112200000D03*
D14*
X123700000Y-107025000D03*
X123700000Y-106375000D03*
X123700000Y-105725000D03*
X123700000Y-105075000D03*
X123700000Y-104425000D03*
X123700000Y-103775000D03*
X123700000Y-103125000D03*
X123700000Y-102475000D03*
X123700000Y-101825000D03*
X123700000Y-101175000D03*
X123700000Y-100525000D03*
X123700000Y-99875000D03*
X123700000Y-99225000D03*
X123700000Y-98575000D03*
X116500000Y-98575000D03*
X116500000Y-99225000D03*
X116500000Y-99875000D03*
X116500000Y-100525000D03*
X116500000Y-101175000D03*
X116500000Y-101825000D03*
X116500000Y-102475000D03*
X116500000Y-103125000D03*
X116500000Y-103775000D03*
X116500000Y-104425000D03*
X116500000Y-105075000D03*
X116500000Y-105725000D03*
X116500000Y-106375000D03*
X116500000Y-107025000D03*
M02*
