M48
;DRILL file {KiCad 4.1.0-alpha+201606051201+6884~45~ubuntu16.04.1-product} date Tue Jun  7 15:37:27 2016
;FORMAT={-:-/ absolute / metric / decimal}
FMAT,2
METRIC,TZ
T1C0.400
T2C0.800
%
G90
G05
M71
T1
X91.9Y-97.8
X93.5Y-99.5
X94.2Y-100.2
X96.69Y-100.99
X98.1Y-108.
X102.6Y-101.825
X103.7Y-103.1
X104.4Y-101.2
X104.4Y-103.8
X104.4Y-108.4
X104.9Y-97.975
X107.4Y-100.7
X111.Y-102.5
X114.3Y-106.4
X116.5Y-97.3
X118.1Y-105.05
X118.1Y-107.3
X118.2Y-108.2
X118.8Y-101.3
X119.4Y-99.2
X119.698Y-101.302
X120.2Y-99.2
X120.3Y-105.05
X120.3Y-113.4
X120.595Y-101.315
X121.Y-99.2
X121.1Y-105.7
X121.7Y-101.35
X121.7Y-102.5
X121.8Y-99.2
X122.Y-105.7
X125.3Y-107.
X125.5Y-100.7
X125.5Y-101.9
T2
X99.999Y-95.45
X99.999Y-110.55
X101.777Y-95.45
X101.777Y-110.55
X103.555Y-95.45
X103.555Y-110.55
X105.333Y-95.45
X105.333Y-110.55
X107.111Y-95.45
X107.111Y-110.55
X108.889Y-95.45
X108.889Y-110.55
X110.667Y-95.45
X110.667Y-110.55
X112.445Y-95.45
X112.445Y-110.55
X114.223Y-95.45
X114.223Y-110.55
X116.001Y-95.45
X116.001Y-110.55
T0
M30
